<svg xmlns="http://www.w3.org/2000/svg" xmlns:xlink="http://www.w3.org/1999/xlink" viewBox="0 0 1366 768" style="enable-background:new 0 0 1366 768" xml:space="preserve"><style>.st2{fill:#3d3d3d}.st3{fill:none;stroke:#000;stroke-width:.5}.st10,.st3,.st7,.st9{stroke-miterlimit:10}.st7{fill:none;stroke:#070707;stroke-linecap:round;stroke-linejoin:round;stroke-dasharray:1}.st10,.st9{fill:#232222;stroke:#000;stroke-width:.5}.st10{fill:#afafaf}.st11{fill:#909091}.st12{fill:#c1c1c1}.st13{fill:#b88af9}.st14,.st15{stroke-width:.5}.st14{fill:none;stroke:#b88af9;stroke-miterlimit:10}.st15{stroke:#4d8dff}.st15,.st17,.st19{fill:none;stroke-miterlimit:10}.st17{stroke:#b88af9;stroke-width:.75}.st19{stroke:#a98ff7}.st20{stroke-width:2}.st20,.st21,.st22,.st23,.st24{fill:#b88af9;stroke:#b88af9;stroke-miterlimit:10}.st22,.st23,.st24{fill:#8e6bc6;stroke:#8e6bc6}.st23,.st24{fill:#69509b;stroke:#69509b}.st24{stroke-width:2}.st25{fill:#a98ff7}</style><switch><g><g id="botoes"><path d="M1279.33 628.03h-1198c-29.89 0-54.12-24.23-54.12-54.12V227.59c0-29.89 24.23-54.12 54.12-54.12h1198c29.89 0 54.12 24.23 54.12 54.12v346.32c-.01 29.89-24.23 54.12-54.12 54.12z" style="fill:#232222"/><path class="st2" d="M368.43 255.39h267.21v164.26H368.43zM727.23 254.86h267.21v164.26H727.23z"/><path style="stroke:#000;stroke-width:.5;stroke-miterlimit:10" d="M635.63 255.39h91.59v164.26h-91.59z"/><path style="fill:#9b9e97" d="M644.54 277.24h73.79v122.92h-73.79z"/><defs><path id="SVGID_1_" d="M146.44 251.16H358.3c5.33 0 9.64 4.32 9.64 9.64v152.35c0 5.33-4.32 9.64-9.64 9.64H146.44c-5.33 0-9.64-4.32-9.64-9.64V260.81c0-5.33 4.32-9.65 9.64-9.65z"/></defs><clipPath id="SVGID_2_"><use xlink:href="#SVGID_1_" style="overflow:visible"/></clipPath><g style="clip-path:url(#SVGID_2_)"><ellipse class="st7" cx="219.69" cy="332.09" rx="8.37" ry="8.4"/><ellipse class="st7" cx="220.73" cy="332.09" rx="14.95" ry="15"/><ellipse class="st7" cx="221.76" cy="332.09" rx="21.53" ry="21.61"/><ellipse class="st7" cx="222.8" cy="332.09" rx="28.11" ry="28.21"/><ellipse class="st7" cx="223.83" cy="332.09" rx="34.69" ry="34.81"/><ellipse class="st7" cx="224.86" cy="332.09" rx="41.26" ry="41.41"/><ellipse class="st7" cx="225.9" cy="332.09" rx="47.84" ry="48.01"/><ellipse class="st7" cx="226.93" cy="332.09" rx="54.42" ry="54.62"/><ellipse class="st7" cx="227.97" cy="332.09" rx="61" ry="61.22"/><ellipse class="st7" cx="229" cy="332.09" rx="67.58" ry="67.82"/><ellipse class="st7" cx="230.04" cy="332.09" rx="74.16" ry="74.42"/><ellipse class="st7" cx="231.07" cy="332.09" rx="80.74" ry="81.03"/><ellipse class="st7" cx="232.1" cy="332.09" rx="87.32" ry="87.63"/><ellipse class="st7" cx="233.14" cy="332.09" rx="93.89" ry="94.23"/><ellipse class="st7" cx="234.17" cy="332.09" rx="100.47" ry="100.83"/><ellipse class="st7" cx="235.21" cy="332.09" rx="107.05" ry="107.43"/><ellipse class="st7" cx="236.24" cy="332.09" rx="113.63" ry="114.04"/><ellipse class="st7" cx="237.28" cy="332.09" rx="120.21" ry="120.64"/><ellipse class="st7" cx="238.31" cy="332.09" rx="126.79" ry="127.24"/><ellipse class="st7" cx="239.35" cy="332.09" rx="133.37" ry="133.84"/><ellipse class="st7" cx="240.38" cy="332.09" rx="139.95" ry="140.44"/><ellipse class="st7" cx="241.41" cy="332.09" rx="146.52" ry="147.05"/></g><use xlink:href="#SVGID_1_" style="overflow:visible;fill:none;stroke:#2d2d2d;stroke-miterlimit:10"/><defs><path id="SVGID_3_" d="M1216.95 251.16h-211.86c-5.33 0-9.64 4.32-9.64 9.64v152.35c0 5.33 4.32 9.64 9.64 9.64h211.86c5.33 0 9.65-4.32 9.65-9.64V260.81c-.01-5.33-4.32-9.65-9.65-9.65z"/></defs><clipPath id="SVGID_4_"><use xlink:href="#SVGID_3_" style="overflow:visible"/></clipPath><g style="clip-path:url(#SVGID_4_)"><ellipse class="st7" cx="1143.7" cy="332.09" rx="8.37" ry="8.4"/><ellipse class="st7" cx="1142.66" cy="332.09" rx="14.95" ry="15"/><ellipse class="st7" cx="1141.63" cy="332.09" rx="21.53" ry="21.61"/><ellipse class="st7" cx="1140.6" cy="332.09" rx="28.11" ry="28.21"/><ellipse class="st7" cx="1139.56" cy="332.09" rx="34.69" ry="34.81"/><ellipse class="st7" cx="1138.53" cy="332.09" rx="41.26" ry="41.41"/><ellipse class="st7" cx="1137.49" cy="332.09" rx="47.84" ry="48.01"/><ellipse class="st7" cx="1136.46" cy="332.09" rx="54.42" ry="54.62"/><ellipse class="st7" cx="1135.42" cy="332.09" rx="61" ry="61.22"/><ellipse class="st7" cx="1134.39" cy="332.09" rx="67.58" ry="67.82"/><ellipse class="st7" cx="1133.36" cy="332.09" rx="74.16" ry="74.42"/><ellipse class="st7" cx="1132.32" cy="332.09" rx="80.74" ry="81.03"/><ellipse class="st7" cx="1131.29" cy="332.09" rx="87.32" ry="87.63"/><ellipse class="st7" cx="1130.25" cy="332.09" rx="93.89" ry="94.23"/><ellipse class="st7" cx="1129.22" cy="332.09" rx="100.47" ry="100.83"/><ellipse class="st7" cx="1128.18" cy="332.09" rx="107.05" ry="107.43"/><ellipse class="st7" cx="1127.15" cy="332.09" rx="113.63" ry="114.04"/><ellipse class="st7" cx="1126.11" cy="332.09" rx="120.21" ry="120.64"/><ellipse class="st7" cx="1125.08" cy="332.09" rx="126.79" ry="127.24"/><ellipse class="st7" cx="1124.05" cy="332.09" rx="133.37" ry="133.84"/><ellipse class="st7" cx="1123.01" cy="332.09" rx="139.95" ry="140.44"/><ellipse class="st7" cx="1121.98" cy="332.09" rx="146.52" ry="147.05"/></g><use xlink:href="#SVGID_3_" style="overflow:visible;fill:none;stroke:#2d2d2d;stroke-miterlimit:10"/><path class="st9" d="M428.14 372.38h-32.66c-4.06 0-7.5 3.04-7.92 7.08-.01.14-.03.29-.04.44-.1 1.3-.05 2.63.14 3.88.57 3.88 3.95 6.73 7.87 6.73h32.7c3.98 0 7.46-2.93 7.89-6.9 0-.03.01-.07.01-.1.16-1.57.08-3.21-.18-4.74-.65-3.73-4.02-6.39-7.81-6.39z"/><path class="st10" d="M405.53 372.38h-9.85c-4.47 0-8.09 3.62-8.09 8.09v1.95c0 4.47 3.62 8.09 8.09 8.09h9.85c4.47 0 8.09-3.62 8.09-8.09v-1.95c0-4.46-3.63-8.09-8.09-8.09z"/><circle class="st11" cx="400.38" cy="381.45" r="6.84"/><path class="st12" d="M393.24 363.9c-.12.23-.32.41-.58.55s-.6.21-1 .21h-.82v1.88h-.98v-4.89h1.8c.38 0 .7.06.97.2s.47.31.6.54c.13.23.2.49.2.78 0 .25-.06.5-.19.73zm-1.02-.22c.13-.12.2-.3.2-.52 0-.48-.27-.71-.8-.71h-.78v1.42h.78c.27 0 .47-.06.6-.19zM396.53 366.26c-.38-.21-.69-.51-.91-.89-.22-.38-.34-.81-.34-1.29s.11-.9.34-1.28c.22-.38.53-.68.91-.89.38-.21.8-.32 1.26-.32.46 0 .88.11 1.26.32s.68.51.9.89c.22.38.33.81.33 1.28 0 .48-.11.91-.33 1.29-.22.38-.52.68-.91.89-.38.21-.8.32-1.26.32s-.87-.1-1.25-.32zm2.04-.75c.22-.13.4-.32.53-.57.13-.25.19-.53.19-.86 0-.33-.06-.61-.19-.86s-.3-.43-.53-.56c-.22-.13-.48-.2-.78-.2s-.55.07-.78.2c-.23.13-.4.32-.53.56s-.19.53-.19.86c0 .33.06.61.19.86s.3.44.53.57c.23.13.49.2.78.2s.55-.07.78-.2zM408.95 361.65l-1.37 4.89h-1.15l-.92-3.48-.96 3.48-1.15.01-1.32-4.89h1.05l.86 3.79.99-3.79h1.09l.94 3.77.87-3.77h1.07zM411.96 362.44v1.22h1.65v.78h-1.65v1.29h1.85v.8h-2.83v-4.89h2.83v.8h-1.85zM418.63 366.53l-1.08-1.9h-.46v1.9h-.98v-4.89h1.83c.38 0 .7.07.97.2s.47.31.6.54c.13.23.2.48.2.76 0 .32-.09.61-.28.87-.19.26-.46.44-.83.54l1.17 1.98h-1.14zm-1.54-2.63h.82c.27 0 .46-.06.59-.19.13-.13.2-.31.2-.54 0-.22-.07-.4-.2-.52s-.33-.19-.59-.19h-.82v1.44z"/><path class="st13" d="M394.81 285.99c.36-.57.96-.85 1.81-.85s1.44.28 1.81.85.54 1.36.54 2.36c0 1.01-.18 1.8-.54 2.38s-.97.86-1.81.86-1.44-.29-1.81-.86-.54-1.37-.54-2.38c-.01-1.01.18-1.79.54-2.36zm2.87 1.27c-.06-.29-.17-.53-.33-.72-.17-.19-.41-.28-.74-.28s-.57.09-.74.28c-.17.19-.28.43-.33.72s-.08.65-.08 1.08c0 .44.03.81.08 1.11s.16.54.33.72c.17.18.42.27.74.27s.57-.09.74-.27c.17-.18.28-.42.33-.72s.08-.67.08-1.11c0-.42-.02-.78-.08-1.08zM399.74 286.38v-1.12h2.1v6.35h-1.25v-5.22h-.85zM394.81 296.44c.36-.57.96-.85 1.81-.85s1.44.28 1.81.85.54 1.36.54 2.36c0 1.01-.18 1.8-.54 2.38s-.97.86-1.81.86-1.44-.29-1.81-.86-.54-1.37-.54-2.38c-.01-1.01.18-1.79.54-2.36zm2.87 1.27c-.06-.29-.17-.53-.33-.72-.17-.19-.41-.28-.74-.28s-.57.09-.74.28c-.17.19-.28.43-.33.72s-.08.65-.08 1.08c0 .44.03.81.08 1.11s.16.54.33.72c.17.18.42.27.74.27s.57-.09.74-.27c.17-.18.28-.42.33-.72s.08-.67.08-1.11c0-.42-.02-.78-.08-1.08zM400.27 300.68c.56-.46 1-.85 1.33-1.16.33-.31.61-.63.83-.97.22-.34.33-.67.33-.99 0-.3-.07-.53-.21-.7-.14-.17-.35-.25-.64-.25-.29 0-.51.1-.67.29-.16.19-.24.46-.24.8h-1.18c.02-.7.23-1.22.62-1.58.39-.36.89-.54 1.49-.54.66 0 1.17.18 1.52.53s.53.81.53 1.39c0 .45-.12.89-.37 1.3-.24.41-.52.77-.84 1.08s-.72.67-1.23 1.1h2.57v1.01h-4.3v-.91l.46-.4zM394.81 306.89c.36-.57.96-.85 1.81-.85s1.44.28 1.81.85.54 1.36.54 2.36c0 1.01-.18 1.8-.54 2.38s-.97.86-1.81.86-1.44-.29-1.81-.86-.54-1.37-.54-2.38c-.01-1.01.18-1.79.54-2.36zm2.87 1.27c-.06-.29-.17-.53-.33-.72-.17-.19-.41-.28-.74-.28s-.57.09-.74.28c-.17.19-.28.43-.33.72s-.08.65-.08 1.08c0 .44.03.81.08 1.11s.16.54.33.72c.17.18.42.27.74.27s.57-.09.74-.27c.17-.18.28-.42.33-.72s.08-.67.08-1.11c0-.42-.02-.78-.08-1.08zM400.52 306.48c.38-.32.88-.47 1.5-.47.42 0 .79.07 1.09.22.3.15.53.35.68.6s.23.54.23.86c0 .37-.09.67-.28.93-.19.25-.41.42-.67.51v.04c.34.1.6.29.79.56.19.27.28.61.28 1.03 0 .35-.08.66-.24.93s-.4.49-.71.64-.68.23-1.12.23c-.66 0-1.19-.17-1.6-.5-.41-.33-.63-.82-.65-1.46H401c.01.28.11.51.29.68.18.17.43.26.75.26.3 0 .52-.08.68-.25s.24-.38.24-.64c0-.35-.11-.6-.33-.75-.22-.15-.56-.23-1.03-.23h-.25v-1h.25c.82 0 1.24-.28 1.24-.83 0-.25-.07-.44-.22-.58-.15-.14-.36-.21-.64-.21-.27 0-.48.07-.63.22s-.23.34-.26.56h-1.19c.04-.58.24-1.03.62-1.35zM394.81 317.34c.36-.57.96-.85 1.81-.85s1.44.28 1.81.85.54 1.36.54 2.36c0 1.01-.18 1.8-.54 2.38s-.97.86-1.81.86-1.44-.29-1.81-.86-.54-1.37-.54-2.38c-.01-1.01.18-1.79.54-2.36zm2.87 1.27c-.06-.29-.17-.53-.33-.72-.17-.19-.41-.28-.74-.28s-.57.09-.74.28c-.17.19-.28.43-.33.72s-.08.65-.08 1.08c0 .44.03.81.08 1.11s.16.54.33.72c.17.18.42.27.74.27s.57-.09.74-.27c.17-.18.28-.42.33-.72s.08-.67.08-1.11c0-.42-.02-.78-.08-1.08zM399.84 321.72v-.96l2.85-4.08h1.42v3.97h.77v1.06h-.77v1.24h-1.22v-1.24h-3.05zm3.12-3.73-1.79 2.66h1.79v-2.66zM394.81 327.79c.36-.57.96-.85 1.81-.85s1.44.28 1.81.85.54 1.36.54 2.36c0 1.01-.18 1.8-.54 2.38s-.97.86-1.81.86-1.44-.29-1.81-.86-.54-1.37-.54-2.38c-.01-1.01.18-1.79.54-2.36zm2.87 1.27c-.06-.29-.17-.53-.33-.72-.17-.19-.41-.28-.74-.28s-.57.09-.74.28c-.17.19-.28.43-.33.72s-.08.65-.08 1.08c0 .44.03.81.08 1.11s.16.54.33.72c.17.18.42.27.74.27s.57-.09.74-.27c.17-.18.28-.42.33-.72s.08-.67.08-1.11c0-.42-.02-.78-.08-1.08zM404.16 328.11h-2.82v1.49c.12-.15.3-.27.52-.37.23-.1.47-.14.72-.14.46 0 .84.1 1.14.31s.51.46.64.78.2.65.2 1.01c0 .67-.19 1.21-.57 1.61-.38.41-.92.61-1.62.61-.66 0-1.19-.17-1.58-.5-.4-.33-.62-.76-.67-1.3h1.18c.05.23.17.42.35.56.18.14.42.21.7.21.34 0 .6-.11.77-.32.17-.21.26-.5.26-.85 0-.36-.09-.63-.27-.82-.18-.19-.44-.28-.78-.28-.24 0-.45.06-.61.18-.16.12-.28.28-.35.49h-1.17v-3.73h3.94v1.06z"/><path class="st12" d="M408.85 286.82c.27-.47.64-.84 1.11-1.11s.99-.4 1.57-.4c.68 0 1.27.17 1.79.52.51.35.87.83 1.07 1.45h-1.4c-.14-.29-.34-.51-.59-.65-.25-.15-.54-.22-.88-.22-.35 0-.67.08-.94.25-.28.17-.49.4-.64.7-.15.3-.23.66-.23 1.06s.08.75.23 1.06.37.54.64.71c.28.17.59.25.94.25.33 0 .62-.07.88-.22s.45-.37.59-.66h1.4c-.2.62-.56 1.1-1.07 1.45s-1.1.52-1.79.52c-.58 0-1.1-.13-1.57-.4s-.84-.63-1.11-1.1c-.27-.47-.4-1-.4-1.6 0-.6.13-1.14.4-1.61zM415.93 285.45c.38-.32.88-.47 1.5-.47.42 0 .79.07 1.09.22.3.15.53.35.68.6s.23.54.23.86c0 .37-.09.67-.28.93-.19.25-.41.42-.67.51v.04c.34.1.6.29.79.56.19.27.28.61.28 1.03 0 .35-.08.66-.24.93s-.4.49-.71.64-.68.23-1.12.23c-.66 0-1.19-.17-1.6-.5-.41-.33-.63-.82-.65-1.46h1.18c.01.28.11.51.29.68.18.17.43.26.75.26.3 0 .52-.08.68-.25s.24-.38.24-.64c0-.35-.11-.6-.33-.75-.22-.15-.56-.23-1.03-.23h-.25v-1h.25c.82 0 1.24-.28 1.24-.83 0-.25-.07-.44-.22-.58-.15-.14-.36-.21-.64-.21-.27 0-.48.07-.63.22s-.23.34-.26.56h-1.19c.03-.59.23-1.03.62-1.35zM412.56 296.22c.48.25.86.6 1.12 1.07.26.46.4 1 .4 1.61 0 .61-.13 1.14-.4 1.6-.26.46-.64.81-1.12 1.06-.48.25-1.05.37-1.69.37h-2.12v-6.08h2.12c.64-.01 1.2.12 1.69.37zm-.25 4.14c.35-.35.52-.84.52-1.47s-.17-1.13-.52-1.48c-.35-.36-.84-.54-1.48-.54h-.86v4.01h.86c.64 0 1.13-.17 1.48-.52zM415.48 295.9c.38-.32.88-.47 1.5-.47.42 0 .79.07 1.09.22.3.15.53.35.68.6s.23.54.23.86c0 .37-.09.67-.28.93-.19.25-.41.42-.67.51v.04c.34.1.6.29.79.56.19.27.28.61.28 1.03 0 .35-.08.66-.24.93s-.4.49-.71.64-.68.23-1.12.23c-.66 0-1.19-.17-1.6-.5-.41-.33-.63-.82-.65-1.46h1.18c.01.28.11.51.29.68.18.17.43.26.75.26.3 0 .52-.08.68-.25s.24-.38.24-.64c0-.35-.11-.6-.33-.75-.22-.15-.56-.23-1.03-.23h-.25v-1h.25c.82 0 1.24-.28 1.24-.83 0-.25-.07-.44-.22-.58-.15-.14-.36-.21-.64-.21-.27 0-.48.07-.63.22s-.23.34-.26.56h-1.19c.04-.59.24-1.03.62-1.35zM409.96 307.28v1.52h2.05v.97h-2.05v1.61h2.31v.99h-3.53v-6.09h3.53v.99h-2.31zM413.87 306.35c.38-.32.88-.47 1.5-.47.42 0 .79.07 1.09.22.3.15.53.35.68.6s.23.54.23.86c0 .37-.09.67-.28.93-.19.25-.41.42-.67.51v.04c.34.1.6.29.79.56.19.27.28.61.28 1.03 0 .35-.08.66-.24.93s-.4.49-.71.64-.68.23-1.12.23c-.66 0-1.19-.17-1.6-.5-.41-.33-.63-.82-.65-1.46h1.18c.01.28.11.51.29.68.18.17.43.26.75.26.3 0 .52-.08.68-.25s.24-.38.24-.64c0-.35-.11-.6-.33-.75-.22-.15-.56-.23-1.03-.23h-.25v-1h.25c.82 0 1.24-.28 1.24-.83 0-.25-.07-.44-.22-.58-.15-.14-.36-.21-.64-.21-.27 0-.48.07-.63.22s-.23.34-.26.56h-1.19c.04-.59.24-1.04.62-1.35zM412.5 316.74v.98h-2.53v1.56h1.94v.97h-1.94v2.57h-1.22v-6.08h3.75zM413.85 316.8c.38-.32.88-.47 1.5-.47.42 0 .79.07 1.09.22.3.15.53.35.68.6s.23.54.23.86c0 .37-.09.67-.28.93-.19.25-.41.42-.67.51v.04c.34.1.6.29.79.56.19.27.28.61.28 1.03 0 .35-.08.66-.24.93s-.4.49-.71.64-.68.23-1.12.23c-.66 0-1.19-.17-1.6-.5-.41-.33-.63-.82-.65-1.46h1.18c.01.28.11.51.29.68.18.17.43.26.75.26.3 0 .52-.08.68-.25s.24-.38.24-.64c0-.35-.11-.6-.33-.75-.22-.15-.56-.23-1.03-.23h-.25v-1h.25c.82 0 1.24-.28 1.24-.83 0-.25-.07-.44-.22-.58-.15-.14-.36-.21-.64-.21-.27 0-.48.07-.63.22s-.23.34-.26.56h-1.19c.04-.59.24-1.04.62-1.35zM412.98 329.02c-.14-.26-.33-.45-.57-.58-.24-.13-.53-.2-.85-.2-.36 0-.68.08-.96.24-.28.16-.5.4-.65.7s-.24.65-.24 1.04c0 .41.08.76.24 1.06s.38.53.67.7c.28.16.62.24.99.24.46 0 .84-.12 1.14-.37.3-.25.49-.59.58-1.03h-2.09v-.93h3.29v1.06c-.08.42-.26.82-.52 1.18s-.61.65-1.03.87-.89.33-1.42.33c-.59 0-1.12-.13-1.59-.4s-.84-.63-1.11-1.1c-.27-.47-.4-1-.4-1.6 0-.6.14-1.13.4-1.61.27-.47.64-.84 1.11-1.11s1-.4 1.58-.4c.69 0 1.28.17 1.79.5s.85.8 1.04 1.41h-1.4zM415.93 327.25c.38-.32.88-.47 1.5-.47.42 0 .79.07 1.09.22.3.15.53.35.68.6s.23.54.23.86c0 .37-.09.67-.28.93-.19.25-.41.42-.67.51v.04c.34.1.6.29.79.56.19.27.28.61.28 1.03 0 .35-.08.66-.24.93s-.4.49-.71.64-.68.23-1.12.23c-.66 0-1.19-.17-1.6-.5-.41-.33-.63-.82-.65-1.46h1.18c.01.28.11.51.29.68.18.17.43.26.75.26.3 0 .52-.08.68-.25s.24-.38.24-.64c0-.35-.11-.6-.33-.75-.22-.15-.56-.23-1.03-.23h-.25v-1h.25c.82 0 1.24-.28 1.24-.83 0-.25-.07-.44-.22-.58-.15-.14-.36-.21-.64-.21-.27 0-.48.07-.63.22s-.23.34-.26.56h-1.19c.03-.59.23-1.04.62-1.35z"/><path class="st13" d="M786.69 285.65c.36-.57.96-.85 1.81-.85s1.44.28 1.81.85c.36.57.54 1.36.54 2.36 0 1.01-.18 1.8-.54 2.38-.36.57-.97.86-1.81.86s-1.44-.29-1.81-.86c-.36-.57-.54-1.37-.54-2.38-.01-1 .17-1.79.54-2.36zm2.87 1.28c-.06-.29-.17-.53-.33-.72-.17-.19-.41-.28-.74-.28s-.57.09-.74.28c-.17.19-.28.43-.33.72-.05.29-.08.65-.08 1.08 0 .44.03.81.08 1.11.05.3.16.54.33.72.17.18.42.27.74.27s.57-.09.74-.27c.17-.18.28-.42.33-.72.05-.3.08-.67.08-1.11 0-.43-.02-.79-.08-1.08zM791.62 286.04v-1.12h2.1v6.35h-1.25v-5.22h-.85zM786.69 296.1c.36-.57.96-.85 1.81-.85s1.44.28 1.81.85c.36.57.54 1.36.54 2.36 0 1.01-.18 1.8-.54 2.38-.36.57-.97.86-1.81.86s-1.44-.29-1.81-.86c-.36-.57-.54-1.37-.54-2.38-.01-1 .17-1.79.54-2.36zm2.87 1.28c-.06-.29-.17-.53-.33-.72-.17-.19-.41-.28-.74-.28s-.57.09-.74.28c-.17.19-.28.43-.33.72-.05.29-.08.65-.08 1.08 0 .44.03.81.08 1.11.05.3.16.54.33.72.17.18.42.27.74.27s.57-.09.74-.27c.17-.18.28-.42.33-.72.05-.3.08-.67.08-1.11 0-.43-.02-.79-.08-1.08zM792.15 300.34c.56-.46 1-.85 1.33-1.16.33-.31.61-.63.83-.97.22-.34.33-.67.33-.99 0-.3-.07-.53-.21-.7s-.35-.25-.64-.25-.51.1-.67.29c-.16.19-.24.46-.24.8h-1.18c.02-.7.23-1.22.62-1.58.39-.36.89-.54 1.49-.54.66 0 1.17.18 1.52.53.35.35.53.81.53 1.39 0 .45-.12.89-.37 1.3-.24.41-.52.77-.84 1.08s-.72.67-1.23 1.1H796v1.01h-4.3v-.91l.45-.4zM786.69 306.55c.36-.57.96-.85 1.81-.85s1.44.28 1.81.85c.36.57.54 1.36.54 2.36 0 1.01-.18 1.8-.54 2.38-.36.57-.97.86-1.81.86s-1.44-.29-1.81-.86c-.36-.57-.54-1.37-.54-2.38-.01-1 .17-1.79.54-2.36zm2.87 1.28c-.06-.29-.17-.53-.33-.72-.17-.19-.41-.28-.74-.28s-.57.09-.74.28c-.17.19-.28.43-.33.72-.05.29-.08.65-.08 1.08 0 .44.03.81.08 1.11.05.3.16.54.33.72.17.18.42.27.74.27s.57-.09.74-.27c.17-.18.28-.42.33-.72.05-.3.08-.67.08-1.11 0-.43-.02-.79-.08-1.08zM792.4 306.15c.38-.32.88-.47 1.5-.47.42 0 .79.07 1.09.22.3.15.53.35.68.6.15.25.23.54.23.86 0 .37-.09.67-.28.93s-.41.42-.67.51v.04c.34.1.6.29.79.56s.28.61.28 1.03c0 .35-.08.66-.24.93-.16.27-.4.49-.71.64s-.68.23-1.12.23c-.66 0-1.19-.17-1.6-.5-.41-.33-.63-.82-.65-1.46h1.18c.01.28.11.51.29.68.18.17.43.26.75.26.3 0 .52-.08.68-.25.16-.17.24-.38.24-.64 0-.35-.11-.6-.33-.75s-.56-.23-1.03-.23h-.25v-1h.25c.82 0 1.24-.28 1.24-.83 0-.25-.07-.44-.22-.58-.15-.14-.36-.21-.64-.21-.27 0-.48.07-.63.22-.15.15-.23.34-.26.56h-1.19c.03-.59.24-1.04.62-1.35zM786.69 317c.36-.57.96-.85 1.81-.85s1.44.28 1.81.85c.36.57.54 1.36.54 2.36 0 1.01-.18 1.8-.54 2.38-.36.57-.97.86-1.81.86s-1.44-.29-1.81-.86c-.36-.57-.54-1.37-.54-2.38-.01-1 .17-1.79.54-2.36zm2.87 1.28c-.06-.29-.17-.53-.33-.72-.17-.19-.41-.28-.74-.28s-.57.09-.74.28c-.17.19-.28.43-.33.72-.05.29-.08.65-.08 1.08 0 .44.03.81.08 1.11.05.3.16.54.33.72.17.18.42.27.74.27s.57-.09.74-.27c.17-.18.28-.42.33-.72.05-.3.08-.67.08-1.11 0-.43-.02-.79-.08-1.08zM791.72 321.38v-.96l2.85-4.08h1.42v3.97h.77v1.06h-.77v1.24h-1.22v-1.24h-3.05zm3.12-3.73-1.79 2.66h1.79v-2.66zM786.69 327.45c.36-.57.96-.85 1.81-.85s1.44.28 1.81.85c.36.57.54 1.36.54 2.36 0 1.01-.18 1.8-.54 2.38-.36.57-.97.86-1.81.86s-1.44-.29-1.81-.86c-.36-.57-.54-1.37-.54-2.38-.01-1.01.17-1.79.54-2.36zm2.87 1.28c-.06-.29-.17-.53-.33-.72-.17-.19-.41-.28-.74-.28s-.57.09-.74.28c-.17.19-.28.43-.33.72-.05.29-.08.65-.08 1.08 0 .44.03.81.08 1.11.05.3.16.54.33.72.17.18.42.27.74.27s.57-.09.74-.27c.17-.18.28-.42.33-.72.05-.3.08-.67.08-1.11 0-.43-.02-.79-.08-1.08zM796.04 327.77h-2.82v1.49c.12-.15.3-.27.52-.37.23-.1.47-.14.72-.14.46 0 .84.1 1.14.31s.51.46.64.78.2.65.2 1.01c0 .67-.19 1.21-.57 1.61-.38.41-.92.61-1.62.61-.66 0-1.19-.17-1.58-.5-.4-.33-.62-.76-.67-1.3h1.18c.05.23.17.42.35.56.18.14.42.21.7.21.34 0 .6-.11.77-.32.17-.21.26-.5.26-.85 0-.36-.09-.63-.27-.82s-.44-.28-.78-.28c-.24 0-.45.06-.61.18-.16.12-.28.28-.35.49h-1.17v-3.73h3.94v1.06z"/><g><path class="st12" d="M805.96 285.56c.48.25.86.6 1.12 1.07.26.46.4 1 .4 1.61 0 .61-.13 1.14-.4 1.6-.26.46-.64.81-1.12 1.06-.49.25-1.05.37-1.69.37h-2.12v-6.08h2.12c.64 0 1.2.12 1.69.37zm-.25 4.15c.35-.35.52-.84.52-1.47s-.17-1.13-.52-1.48c-.35-.36-.84-.54-1.48-.54h-.86v4.01h.86c.64 0 1.13-.17 1.48-.52zM810.26 286.58c.28-.15.59-.22.94-.22.41 0 .79.1 1.12.3s.6.49.79.87c.2.37.29.81.29 1.3s-.1.93-.29 1.31c-.19.38-.46.67-.79.88s-.71.31-1.12.31c-.36 0-.67-.07-.94-.21-.27-.14-.49-.33-.65-.55v.69h-1.22v-6.44h1.22v2.33c.16-.23.37-.42.65-.57zm1.72 1.51c-.12-.21-.28-.37-.47-.48s-.41-.17-.63-.17c-.22 0-.43.06-.62.17-.2.11-.35.28-.47.49-.12.21-.18.47-.18.76 0 .29.06.54.18.76s.28.38.47.49c.19.11.4.17.62.17.23 0 .44-.06.63-.17.19-.12.35-.28.47-.5s.18-.47.18-.77c0-.29-.06-.54-.18-.75zM814.79 285.25c.38-.32.88-.47 1.5-.47.42 0 .79.07 1.09.22s.53.35.68.6c.15.25.23.54.23.86 0 .37-.09.67-.28.93-.19.25-.41.42-.67.51v.04c.34.1.6.29.79.56.19.27.28.61.28 1.03 0 .35-.08.66-.24.93-.16.27-.39.49-.71.64s-.68.23-1.12.23c-.66 0-1.19-.17-1.6-.5-.41-.33-.63-.82-.65-1.46h1.18c.01.28.11.51.29.68.18.17.43.26.75.26.3 0 .52-.08.68-.25.16-.17.24-.38.24-.64 0-.35-.11-.6-.33-.75-.22-.15-.56-.23-1.03-.23h-.25v-1h.25c.82 0 1.24-.28 1.24-.83 0-.25-.07-.44-.22-.58-.15-.14-.36-.21-.64-.21-.27 0-.48.07-.63.22-.15.15-.23.34-.26.56h-1.19c.03-.59.24-1.04.62-1.35zM803.37 296.62v1.52h2.05v.97h-2.05v1.61h2.31v.99h-3.53v-6.09h3.53v.99h-2.31zM808.65 297.03c.28-.15.59-.22.95-.22.41 0 .79.1 1.12.3.33.2.6.49.79.87s.29.81.29 1.3-.1.93-.29 1.31c-.19.38-.46.67-.79.88-.33.21-.71.31-1.12.31-.36 0-.67-.07-.95-.21-.27-.14-.49-.33-.65-.55v.69h-1.22v-6.44H808v2.33c.16-.23.37-.42.65-.57zm1.72 1.5c-.12-.21-.28-.37-.47-.48s-.4-.17-.63-.17c-.22 0-.43.06-.62.17s-.35.28-.47.49c-.12.21-.18.47-.18.76 0 .29.06.54.18.76.12.21.28.38.47.49s.4.17.62.17c.23 0 .44-.06.63-.17.19-.12.35-.28.47-.5s.18-.47.18-.77c0-.28-.06-.53-.18-.75zM813.18 295.7c.38-.32.88-.47 1.5-.47.42 0 .79.07 1.09.22.3.15.53.35.68.6.15.25.23.54.23.86 0 .37-.09.67-.28.93s-.41.42-.67.51v.04c.34.1.6.29.79.56s.28.61.28 1.03c0 .35-.08.66-.24.93-.16.27-.4.49-.71.64s-.68.23-1.12.23c-.66 0-1.19-.17-1.6-.5-.41-.33-.63-.82-.65-1.46h1.18c.01.28.11.51.29.68.18.17.43.26.75.26.3 0 .52-.08.68-.25.16-.17.24-.38.24-.64 0-.35-.11-.6-.33-.75s-.56-.23-1.03-.23h-.25v-1h.25c.82 0 1.24-.28 1.24-.83 0-.25-.07-.44-.22-.58-.15-.14-.36-.21-.64-.21-.27 0-.48.07-.63.22-.15.15-.23.34-.26.56h-1.19c.03-.59.23-1.04.62-1.35zM806.38 307.92c-.14-.26-.33-.45-.57-.58-.24-.13-.53-.2-.85-.2-.36 0-.68.08-.96.24-.28.16-.5.4-.65.7-.16.3-.24.65-.24 1.04 0 .41.08.76.24 1.06.16.3.38.53.67.7.28.16.62.24.99.24.46 0 .84-.12 1.14-.37.3-.25.49-.59.58-1.03h-2.09v-.93h3.29v1.06c-.08.42-.25.82-.52 1.18s-.61.65-1.03.87-.89.33-1.42.33c-.59 0-1.12-.13-1.59-.4-.47-.26-.84-.63-1.11-1.1s-.41-1-.41-1.6c0-.6.14-1.13.41-1.61s.64-.84 1.11-1.11c.47-.26 1-.4 1.58-.4.68 0 1.28.17 1.79.5s.85.8 1.04 1.41h-1.4zM810.7 307.48c.28-.15.59-.22.95-.22.41 0 .79.1 1.12.3.33.2.6.49.79.87s.29.81.29 1.3-.1.93-.29 1.31c-.19.38-.46.67-.79.88-.33.21-.71.31-1.12.31-.36 0-.67-.07-.95-.21-.27-.14-.49-.33-.65-.55v.69h-1.22v-6.44h1.22v2.33c.16-.23.38-.42.65-.57zm1.73 1.5c-.12-.21-.28-.37-.47-.48s-.4-.17-.63-.17c-.22 0-.43.06-.62.17s-.35.28-.47.49c-.12.21-.18.47-.18.76 0 .29.06.54.18.76.12.21.28.38.47.49s.4.17.62.17c.23 0 .44-.06.63-.17.19-.12.35-.28.47-.5s.18-.47.18-.77c0-.28-.06-.53-.18-.75zM815.23 306.15c.38-.32.88-.47 1.5-.47.42 0 .79.07 1.09.22.3.15.53.35.68.6.15.25.23.54.23.86 0 .37-.09.67-.28.93s-.41.42-.67.51v.04c.34.1.6.29.79.56s.28.61.28 1.03c0 .35-.08.66-.24.93-.16.27-.4.49-.71.64s-.68.23-1.12.23c-.66 0-1.19-.17-1.6-.5-.41-.33-.63-.82-.65-1.46h1.18c.01.28.11.51.29.68.18.17.43.26.75.26.3 0 .52-.08.68-.25.16-.17.24-.38.24-.64 0-.35-.11-.6-.33-.75s-.56-.23-1.03-.23h-.25v-1h.25c.82 0 1.24-.28 1.24-.83 0-.25-.07-.44-.22-.58-.15-.14-.36-.21-.64-.21-.27 0-.48.07-.63.22-.15.15-.23.34-.26.56h-1.19c.04-.59.24-1.04.62-1.35zM805.87 321.46h-2.42l-.4 1.16h-1.28l2.19-6.09h1.42l2.19 6.09h-1.29l-.41-1.16zm-.33-.98-.88-2.54-.88 2.54h1.76zM810.25 317.93c.28-.15.59-.22.94-.22.41 0 .79.1 1.12.3s.6.49.79.87c.2.37.29.81.29 1.3s-.1.93-.29 1.31c-.19.38-.46.67-.79.88s-.71.31-1.12.31c-.36 0-.67-.07-.94-.21-.27-.14-.49-.33-.65-.55v.69h-1.22v-6.44h1.22v2.33c.16-.23.37-.42.65-.57zm1.72 1.5c-.12-.21-.28-.37-.47-.48s-.41-.17-.63-.17c-.22 0-.43.06-.62.17-.2.11-.35.28-.47.49-.12.21-.18.47-.18.76 0 .29.06.54.18.76s.28.38.47.49c.19.11.4.17.62.17.23 0 .44-.06.63-.17.19-.12.35-.28.47-.5s.18-.47.18-.77c0-.28-.06-.53-.18-.75zM814.78 316.6c.38-.32.88-.47 1.5-.47.42 0 .79.07 1.09.22s.53.35.68.6c.15.25.23.54.23.86 0 .37-.09.67-.28.93-.19.25-.41.42-.67.51v.04c.34.1.6.29.79.56.19.27.28.61.28 1.03 0 .35-.08.66-.24.93-.16.27-.39.49-.71.64s-.68.23-1.12.23c-.66 0-1.19-.17-1.6-.5-.41-.33-.63-.82-.65-1.46h1.18c.01.28.11.51.29.68.18.17.43.26.75.26.3 0 .52-.08.68-.25.16-.17.24-.38.24-.64 0-.35-.11-.6-.33-.75-.22-.15-.56-.23-1.03-.23h-.25v-1h.25c.82 0 1.24-.28 1.24-.83 0-.25-.07-.44-.22-.58-.15-.14-.36-.21-.64-.21-.27 0-.48.07-.63.22-.15.15-.23.34-.26.56h-1.19c.03-.59.24-1.04.62-1.35zM806.44 330.46c.22.28.33.6.33.96 0 .33-.08.61-.24.86-.16.25-.39.44-.69.58s-.66.21-1.07.21h-2.62v-6.08h2.51c.41 0 .77.07 1.07.2.3.13.53.32.68.56.15.24.23.51.23.81 0 .35-.09.65-.28.89-.19.24-.44.41-.75.5.33.06.61.23.83.51zm-3.07-.96h1.11c.29 0 .51-.07.67-.2.16-.13.24-.32.24-.56 0-.24-.08-.43-.24-.57-.16-.13-.38-.2-.67-.2h-1.11v1.53zm1.92 2.36c.17-.14.25-.34.25-.59 0-.26-.09-.47-.26-.61-.17-.15-.41-.22-.71-.22h-1.2v1.64h1.23c.29-.01.52-.08.69-.22zM809.61 328.38c.28-.15.59-.22.94-.22.41 0 .79.1 1.12.3s.6.49.79.87c.2.37.29.81.29 1.3s-.1.93-.29 1.31c-.19.38-.46.67-.79.88s-.71.31-1.12.31c-.36 0-.67-.07-.94-.21-.27-.14-.49-.33-.65-.55v.69h-1.22v-6.44h1.22v2.33c.16-.24.38-.42.65-.57zm1.73 1.5c-.12-.21-.28-.37-.47-.48s-.41-.17-.63-.17c-.22 0-.43.06-.62.17-.2.11-.35.28-.47.49-.12.21-.18.47-.18.76 0 .29.06.54.18.76s.28.38.47.49c.19.11.4.17.62.17.23 0 .44-.06.63-.17.19-.12.35-.28.47-.5s.18-.47.18-.77c0-.28-.06-.53-.18-.75zM814.14 327.04c.38-.32.88-.47 1.5-.47.42 0 .79.07 1.09.22s.53.35.68.6c.15.25.23.54.23.86 0 .37-.09.67-.28.93-.19.25-.41.42-.67.51v.04c.34.1.6.29.79.56.19.27.28.61.28 1.03 0 .35-.08.66-.24.93-.16.27-.39.49-.71.64s-.68.23-1.12.23c-.66 0-1.19-.17-1.6-.5-.41-.33-.63-.82-.65-1.46h1.18c.01.28.11.51.29.68.18.17.43.26.75.26.3 0 .52-.08.68-.25.16-.17.24-.38.24-.64 0-.35-.11-.6-.33-.75-.22-.15-.56-.23-1.03-.23h-.25v-1h.25c.82 0 1.24-.28 1.24-.83 0-.25-.07-.44-.22-.58-.15-.14-.36-.21-.64-.21-.27 0-.48.07-.63.22-.15.15-.23.34-.26.56h-1.19c.04-.58.24-1.03.62-1.35z"/></g><g><path class="st13" d="M852.07 285.68c.36-.57.96-.85 1.81-.85s1.44.28 1.81.85c.36.57.54 1.36.54 2.36 0 1.01-.18 1.8-.54 2.38-.36.57-.96.86-1.81.86s-1.44-.29-1.81-.86c-.36-.57-.54-1.37-.54-2.38 0-1.01.18-1.79.54-2.36zm2.87 1.27c-.05-.29-.17-.53-.33-.72-.17-.19-.41-.28-.74-.28s-.57.09-.74.28c-.17.19-.28.43-.33.72-.06.29-.08.65-.08 1.08 0 .44.03.81.08 1.11.05.3.16.54.33.72.17.18.42.27.74.27s.57-.09.74-.27c.17-.18.28-.42.33-.72.05-.3.08-.67.08-1.11.01-.42-.02-.78-.08-1.08zM860.14 285.98c-.14-.12-.35-.18-.61-.18-.4 0-.7.16-.88.48-.19.32-.29.85-.29 1.57.14-.23.34-.41.61-.54.27-.13.56-.2.87-.2.38 0 .71.08 1 .24.29.16.52.4.68.71.16.31.24.68.24 1.12 0 .41-.08.78-.25 1.1-.17.32-.41.57-.73.75-.32.18-.7.27-1.14.27-.6 0-1.08-.13-1.42-.4-.35-.27-.59-.64-.72-1.12s-.2-1.07-.2-1.77c0-1.06.18-1.86.55-2.41.37-.54.94-.81 1.73-.81.61 0 1.08.17 1.42.5.34.33.53.74.58 1.24h-1.13c-.06-.24-.16-.43-.31-.55zm-1.36 2.4c-.21.18-.31.44-.31.78s.1.61.29.81.47.3.82.3c.31 0 .56-.1.74-.29s.27-.45.27-.77c0-.34-.09-.6-.27-.8s-.44-.3-.78-.3c-.29 0-.55.09-.76.27zM852.07 296.13c.36-.57.96-.85 1.81-.85s1.44.28 1.81.85c.36.57.54 1.36.54 2.36 0 1.01-.18 1.8-.54 2.38-.36.57-.96.86-1.81.86s-1.44-.29-1.81-.86c-.36-.57-.54-1.37-.54-2.38 0-1.01.18-1.8.54-2.36zm2.87 1.27c-.05-.29-.17-.53-.33-.72-.17-.19-.41-.28-.74-.28s-.57.09-.74.28c-.17.19-.28.43-.33.72-.06.29-.08.65-.08 1.08 0 .44.03.81.08 1.11.05.3.16.54.33.72.17.18.42.27.74.27s.57-.09.74-.27c.17-.18.28-.42.33-.72.05-.3.08-.67.08-1.11.01-.42-.02-.79-.08-1.08zM861.19 296.32l-2.32 5.43h-1.24l2.33-5.29H857v-1.04h4.2v.9zM852.07 306.58c.36-.57.96-.85 1.81-.85s1.44.28 1.81.85c.36.57.54 1.36.54 2.36 0 1.01-.18 1.8-.54 2.38-.36.57-.96.86-1.81.86s-1.44-.29-1.81-.86c-.36-.57-.54-1.37-.54-2.38 0-1.01.18-1.8.54-2.36zm2.87 1.27c-.05-.29-.17-.53-.33-.72-.17-.19-.41-.28-.74-.28s-.57.09-.74.28c-.17.19-.28.43-.33.72-.06.29-.08.65-.08 1.08 0 .44.03.81.08 1.11.05.3.16.54.33.72.17.18.42.27.74.27s.57-.09.74-.27c.17-.18.28-.42.33-.72.05-.3.08-.67.08-1.11.01-.42-.02-.79-.08-1.08zM857.34 307.43c0-.31.08-.6.24-.86.16-.26.4-.46.72-.62s.72-.23 1.18-.23c.46 0 .86.08 1.18.23s.56.36.72.62c.16.26.24.54.24.86 0 .32-.08.6-.24.84-.16.24-.37.43-.63.56.32.14.57.34.75.61.18.27.27.58.27.95 0 .4-.1.74-.3 1.03-.2.29-.47.52-.82.67-.35.16-.74.23-1.17.23-.44 0-.83-.08-1.17-.23-.34-.16-.62-.38-.82-.67-.2-.29-.3-.64-.3-1.03 0-.37.09-.68.27-.95.18-.27.43-.47.75-.61-.58-.3-.87-.77-.87-1.4zm1.34 2.18c-.21.17-.31.41-.31.72 0 .29.1.53.3.71.2.18.47.27.81.27.34 0 .61-.09.81-.28.2-.19.3-.42.3-.71 0-.31-.1-.55-.3-.72-.2-.17-.47-.26-.8-.26-.33.02-.6.11-.81.27zm1.51-2.67c-.17-.16-.4-.23-.7-.23-.29 0-.52.08-.69.23-.17.16-.26.38-.26.67 0 .26.09.47.27.63.18.16.4.24.68.24s.51-.08.69-.24.27-.37.27-.63c-.01-.29-.09-.51-.26-.67zM852.07 317.02c.36-.57.96-.85 1.81-.85s1.44.28 1.81.85c.36.57.54 1.36.54 2.36 0 1.01-.18 1.8-.54 2.38-.36.57-.96.86-1.81.86s-1.44-.29-1.81-.86c-.36-.57-.54-1.37-.54-2.38 0-1 .18-1.79.54-2.36zm2.87 1.28c-.05-.29-.17-.53-.33-.72-.17-.19-.41-.28-.74-.28s-.57.09-.74.28c-.17.19-.28.43-.33.72-.06.29-.08.65-.08 1.08 0 .44.03.81.08 1.11.05.3.16.54.33.72.17.18.42.27.74.27s.57-.09.74-.27c.17-.18.28-.42.33-.72.05-.3.08-.67.08-1.11.01-.42-.02-.79-.08-1.08zM858.88 321.44c.17.14.39.2.67.2.36 0 .62-.15.78-.45.16-.3.24-.8.24-1.51-.13.19-.32.33-.56.44s-.5.16-.78.16c-.37 0-.71-.08-1.01-.23-.3-.15-.54-.38-.71-.69-.17-.31-.26-.68-.26-1.11 0-.64.19-1.16.57-1.54.38-.38.91-.57 1.57-.57.82 0 1.41.26 1.75.79.34.53.51 1.32.51 2.39 0 .75-.07 1.37-.2 1.85s-.35.85-.67 1.1-.75.37-1.29.37c-.43 0-.8-.08-1.1-.25-.3-.17-.53-.38-.69-.65-.16-.27-.25-.57-.27-.89h1.13c.05.26.15.46.32.59zm1.32-2.43c.17-.19.26-.44.26-.75 0-.34-.09-.61-.27-.8-.18-.19-.43-.28-.74-.28s-.56.1-.74.29c-.18.19-.27.45-.27.77 0 .31.09.56.27.75.18.19.44.29.8.29.28.01.52-.08.69-.27zM851.38 327.87v-1.12h2.1v6.35h-1.25v-5.22h-.85zM855.22 327.47c.36-.57.96-.85 1.81-.85s1.44.28 1.81.85c.36.57.54 1.36.54 2.36 0 1.01-.18 1.8-.54 2.38-.36.57-.96.86-1.81.86s-1.44-.29-1.81-.86c-.36-.57-.54-1.37-.54-2.38 0-1 .18-1.79.54-2.36zm2.88 1.28c-.05-.29-.17-.53-.33-.72-.17-.19-.41-.28-.74-.28s-.57.09-.74.28c-.17.19-.28.43-.33.72-.06.29-.08.65-.08 1.08 0 .44.03.81.08 1.11.05.3.16.54.33.72.17.18.42.27.74.27s.57-.09.74-.27c.17-.18.28-.42.33-.72.05-.3.08-.67.08-1.11 0-.43-.03-.79-.08-1.08z"/><g><path class="st12" d="M872.9 285.59c.48.25.86.6 1.12 1.07.26.46.4 1 .4 1.61 0 .61-.13 1.14-.4 1.6-.26.46-.64.81-1.12 1.06s-1.05.37-1.68.37h-2.12v-6.08h2.12c.63-.01 1.2.12 1.68.37zm-.25 4.14c.35-.35.52-.84.52-1.47s-.17-1.13-.52-1.48c-.35-.36-.84-.54-1.48-.54h-.86v4.01h.86c.64.01 1.13-.17 1.48-.52zM877.2 286.61c.28-.15.59-.22.94-.22.41 0 .79.1 1.12.3.33.2.6.49.79.87.2.37.29.81.29 1.3s-.1.93-.29 1.31c-.19.38-.46.67-.79.88-.33.21-.71.31-1.12.31-.36 0-.67-.07-.94-.21-.27-.14-.49-.33-.65-.55v.69h-1.22v-6.44h1.22v2.33c.16-.24.38-.43.65-.57zm1.73 1.5c-.12-.21-.28-.37-.47-.48-.2-.11-.41-.17-.63-.17-.22 0-.43.06-.62.17-.2.11-.35.28-.47.49-.12.21-.18.47-.18.76 0 .29.06.54.18.76s.28.38.47.49c.19.11.4.17.62.17.23 0 .44-.06.63-.17.19-.12.35-.28.47-.5s.18-.47.18-.77c0-.29-.06-.54-.18-.75zM881.05 290.06v-.96l2.85-4.08h1.42v3.97h.77v1.06h-.77v1.24h-1.22v-1.24h-3.05zm3.12-3.73-1.79 2.66h1.79v-2.66zM870.31 296.65v1.52h2.05v.97h-2.05v1.61h2.31v.99h-3.53v-6.09h3.53v.99h-2.31zM875.59 297.06c.28-.15.59-.22.95-.22.41 0 .79.1 1.12.3.33.2.6.49.79.87.2.37.29.81.29 1.3s-.1.93-.29 1.31c-.19.38-.46.67-.79.88-.33.21-.71.31-1.12.31-.36 0-.68-.07-.95-.21-.27-.14-.49-.33-.65-.55v.69h-1.22v-6.44h1.22v2.33c.16-.24.38-.43.65-.57zm1.73 1.5c-.12-.21-.28-.37-.47-.48s-.4-.17-.63-.17c-.22 0-.43.06-.62.17-.2.11-.35.28-.47.49-.12.21-.18.47-.18.76 0 .29.06.54.18.76s.28.38.47.49c.19.11.4.17.62.17.23 0 .44-.06.63-.17.19-.12.35-.28.47-.5s.18-.47.18-.77c-.01-.29-.06-.54-.18-.75zM879.44 300.51v-.96l2.85-4.08h1.42v3.97h.77v1.06h-.77v1.24h-1.22v-1.24h-3.05zm3.12-3.73-1.79 2.66h1.79v-2.66zM873.32 307.94c-.14-.26-.33-.45-.58-.58-.24-.13-.53-.2-.85-.2-.36 0-.68.08-.96.24-.28.16-.5.4-.65.7s-.24.65-.24 1.04c0 .41.08.76.24 1.06.16.3.38.53.67.7.28.16.62.24.99.24.46 0 .84-.12 1.14-.37.3-.25.49-.59.58-1.03h-2.09v-.93h3.29v1.06c-.08.42-.26.82-.52 1.18s-.61.65-1.03.87c-.42.22-.89.33-1.41.33-.59 0-1.12-.13-1.59-.4s-.84-.63-1.12-1.1c-.27-.47-.4-1-.4-1.6 0-.6.13-1.13.4-1.61.27-.47.64-.84 1.12-1.11s1-.4 1.58-.4c.69 0 1.28.17 1.79.5.51.33.85.8 1.04 1.41h-1.4zM877.65 307.51c.28-.15.59-.22.95-.22.41 0 .79.1 1.12.3.33.2.6.49.79.87.2.37.29.81.29 1.3s-.1.93-.29 1.31c-.19.38-.46.67-.79.88-.33.21-.71.31-1.12.31-.36 0-.68-.07-.95-.21-.27-.14-.49-.33-.65-.55v.69h-1.22v-6.44H877v2.33c.15-.24.37-.43.65-.57zm1.72 1.5c-.12-.21-.28-.37-.47-.48s-.4-.17-.63-.17c-.22 0-.43.06-.62.17-.2.11-.35.28-.47.49-.12.21-.18.47-.18.76 0 .29.06.54.18.76s.28.38.47.49c.19.11.4.17.62.17.23 0 .44-.06.63-.17.19-.12.35-.28.47-.5s.18-.47.18-.77c0-.29-.06-.54-.18-.75zM881.49 310.96V310l2.85-4.08h1.42v3.97h.77v1.06h-.77v1.24h-1.22v-1.24h-3.05zm3.13-3.73-1.79 2.66h1.79v-2.66zM872.82 321.48h-2.42l-.4 1.16h-1.28l2.19-6.09h1.42l2.19 6.09h-1.29l-.41-1.16zm-.33-.97-.88-2.54-.88 2.54h1.76zM877.19 317.96c.28-.15.59-.22.95-.22.41 0 .79.1 1.12.3s.6.49.79.87.29.81.29 1.3-.1.93-.29 1.31c-.19.38-.46.67-.79.88s-.71.31-1.12.31c-.36 0-.67-.07-.95-.21-.27-.14-.49-.33-.65-.55v.69h-1.22v-6.44h1.22v2.33c.16-.24.38-.43.65-.57zm1.73 1.5c-.12-.21-.28-.37-.47-.48-.19-.11-.4-.17-.63-.17-.22 0-.43.06-.62.17-.19.11-.35.28-.47.49-.12.21-.18.47-.18.76 0 .29.06.54.18.76.12.21.28.38.47.49.2.11.4.17.62.17.23 0 .44-.06.63-.17.2-.12.35-.28.47-.5s.18-.47.18-.77c0-.29-.06-.54-.18-.75zM881.72 316.62c.38-.32.88-.47 1.5-.47.42 0 .79.07 1.09.22.3.15.53.35.68.6s.23.54.23.86c0 .37-.09.67-.28.93-.19.25-.41.42-.67.51v.04c.34.1.6.29.79.56.19.27.28.61.28 1.03 0 .35-.08.66-.24.93s-.4.49-.71.64-.68.23-1.12.23c-.66 0-1.19-.17-1.6-.5-.41-.33-.63-.82-.65-1.46h1.18c.01.28.11.51.29.68.18.17.43.26.75.26.3 0 .52-.08.68-.25s.24-.38.24-.64c0-.35-.11-.6-.33-.75s-.56-.23-1.03-.23h-.25v-1h.25c.82 0 1.24-.28 1.24-.83 0-.25-.07-.44-.22-.58-.15-.14-.36-.21-.64-.21-.27 0-.48.07-.63.22s-.23.34-.26.56h-1.19c.04-.59.24-1.03.62-1.35zM872.82 331.93h-2.42l-.4 1.16h-1.28l2.19-6.09h1.42l2.19 6.09h-1.29l-.41-1.16zm-.33-.97-.88-2.54-.88 2.54h1.76zM877.19 328.41c.28-.15.59-.22.95-.22.41 0 .79.1 1.12.3s.6.49.79.87.29.81.29 1.3-.1.93-.29 1.31c-.19.38-.46.67-.79.88s-.71.31-1.12.31c-.36 0-.67-.07-.95-.21-.27-.14-.49-.33-.65-.55v.69h-1.22v-6.44h1.22v2.33c.16-.24.38-.43.65-.57zm1.73 1.5c-.12-.21-.28-.37-.47-.48-.19-.11-.4-.17-.63-.17-.22 0-.43.06-.62.17-.19.11-.35.28-.47.49-.12.21-.18.47-.18.76 0 .29.06.54.18.76.12.21.28.38.47.49.2.11.4.17.62.17.23 0 .44-.06.63-.17.2-.12.35-.28.47-.5s.18-.47.18-.77c0-.29-.06-.54-.18-.75zM881.04 331.85v-.96l2.85-4.08h1.42v3.97h.77v1.06h-.77v1.24h-1.22v-1.24h-3.05zm3.12-3.72-1.79 2.66h1.79v-2.66z"/></g></g><g><path class="st13" d="M914.86 285.85v-1.12h2.1v6.35h-1.25v-5.22h-.85zM918.01 285.85v-1.12h2.1v6.35h-1.25v-5.22h-.85zM914.86 296.3v-1.12h2.1v6.35h-1.25v-5.22h-.85zM918.54 300.15c.56-.46 1-.85 1.33-1.16.33-.31.61-.63.83-.97.22-.34.33-.67.33-.99 0-.3-.07-.53-.21-.7s-.35-.25-.64-.25-.51.1-.67.29c-.16.19-.24.46-.24.8h-1.18c.02-.7.23-1.22.62-1.58.39-.36.89-.54 1.49-.54.66 0 1.17.18 1.52.53.35.35.53.81.53 1.39 0 .45-.12.89-.37 1.3-.24.41-.52.77-.84 1.08s-.72.67-1.23 1.1h2.57v1.01h-4.3v-.91l.46-.4zM914.86 306.75v-1.12h2.1v6.35h-1.25v-5.22h-.85zM918.79 305.95c.38-.32.88-.47 1.5-.47.42 0 .79.07 1.09.22.3.15.53.35.68.6.15.25.23.54.23.86 0 .37-.09.67-.28.93s-.41.42-.67.51v.04c.34.1.6.29.79.56s.28.61.28 1.03c0 .35-.08.66-.24.93-.16.27-.4.49-.71.64s-.68.23-1.12.23c-.66 0-1.19-.17-1.6-.5-.41-.33-.63-.82-.65-1.46h1.18c.01.28.11.51.29.68.18.17.43.26.75.26.3 0 .52-.08.68-.25.16-.17.24-.38.24-.64 0-.35-.11-.6-.33-.75s-.56-.23-1.03-.23h-.25v-1h.25c.82 0 1.24-.28 1.24-.83 0-.25-.07-.44-.22-.58-.15-.14-.36-.21-.64-.21-.27 0-.48.07-.63.22-.15.15-.23.34-.26.56h-1.19c.04-.58.24-1.03.62-1.35zM914.86 317.2v-1.12h2.1v6.35h-1.25v-5.22h-.85zM918.11 321.19v-.96l2.85-4.08h1.42v3.97h.77v1.06h-.77v1.24h-1.22v-1.24h-3.05zm3.12-3.73-1.79 2.66h1.79v-2.66zM914.86 327.65v-1.12h2.1v6.35h-1.25v-5.22h-.85zM922.43 327.58h-2.82v1.49c.12-.15.3-.27.52-.37.23-.1.47-.14.72-.14.46 0 .84.1 1.14.31s.51.46.64.78.2.65.2 1.01c0 .67-.19 1.21-.57 1.61-.38.41-.92.61-1.62.61-.66 0-1.19-.17-1.58-.5-.4-.33-.62-.76-.67-1.3h1.18c.05.23.17.42.35.56.18.14.42.21.7.21.34 0 .6-.11.77-.32.17-.21.26-.5.26-.85 0-.36-.09-.63-.27-.82s-.44-.28-.78-.28c-.24 0-.45.06-.61.18-.16.12-.28.28-.35.49h-1.17v-3.73h3.94v1.06z"/><g><path class="st12" d="M934.35 285.81c.48.25.86.6 1.12 1.07.26.46.4 1 .4 1.61 0 .61-.13 1.14-.4 1.6-.26.46-.64.81-1.12 1.06s-1.05.37-1.68.37h-2.13v-6.08h2.13c.63-.01 1.2.12 1.68.37zm-.25 4.14c.35-.35.52-.84.52-1.47s-.17-1.13-.52-1.48-.84-.54-1.48-.54h-.86v4.01h.86c.64.01 1.13-.17 1.48-.52zM938.65 286.83c.28-.15.59-.22.95-.22.41 0 .79.1 1.12.3.33.2.6.49.79.87s.29.81.29 1.3-.1.93-.29 1.31c-.19.38-.46.67-.79.88-.33.21-.71.31-1.12.31-.36 0-.67-.07-.95-.21-.27-.14-.49-.33-.65-.55v.69h-1.22v-6.44H938v2.33c.16-.24.38-.43.65-.57zm1.73 1.5c-.12-.21-.28-.37-.47-.48s-.4-.17-.63-.17c-.22 0-.43.06-.62.17s-.35.28-.47.49c-.12.21-.18.47-.18.76 0 .29.06.54.18.76.12.21.28.38.47.49s.4.17.62.17c.23 0 .44-.06.63-.17.19-.12.35-.28.47-.5s.18-.47.18-.77c0-.29-.06-.54-.18-.75zM946.82 286.22H944v1.49c.12-.15.3-.27.52-.37.23-.1.47-.14.72-.14.46 0 .84.1 1.14.31s.51.46.64.78.2.65.2 1.01c0 .67-.19 1.21-.57 1.61-.38.41-.92.61-1.62.61-.66 0-1.19-.17-1.58-.5-.4-.33-.62-.76-.67-1.3h1.18c.05.23.17.42.35.56.18.14.42.21.7.21.34 0 .6-.11.77-.32.17-.21.26-.5.26-.85 0-.36-.09-.63-.27-.82s-.44-.28-.78-.28c-.24 0-.45.06-.61.18-.16.12-.28.28-.35.49h-1.17v-3.73h3.94v1.06zM931.76 296.87v1.52h2.05v.97h-2.05v1.61h2.31v.99h-3.53v-6.09h3.53v.99h-2.31zM937.04 297.28c.28-.15.59-.22.94-.22.41 0 .79.1 1.12.3s.6.49.79.87c.2.37.29.81.29 1.3s-.1.93-.29 1.31c-.19.38-.46.67-.79.88s-.71.31-1.12.31c-.36 0-.67-.07-.94-.21-.27-.14-.49-.33-.65-.55v.69h-1.22v-6.44h1.22v2.33c.16-.24.38-.43.65-.57zm1.73 1.5c-.12-.21-.28-.37-.47-.48s-.41-.17-.63-.17c-.22 0-.43.06-.62.17-.2.11-.35.28-.47.49-.12.21-.18.47-.18.76 0 .29.06.54.18.76s.28.38.47.49c.19.11.4.17.62.17.23 0 .44-.06.63-.17.19-.12.35-.28.47-.5s.18-.47.18-.77c-.01-.29-.07-.54-.18-.75zM945.21 296.67h-2.82v1.49c.12-.15.3-.27.52-.37.23-.1.47-.14.72-.14.46 0 .84.1 1.14.31s.51.46.64.78.2.65.2 1.01c0 .67-.19 1.21-.57 1.61s-.92.61-1.62.61c-.66 0-1.19-.17-1.58-.5-.39-.33-.62-.76-.67-1.3h1.18c.05.23.17.42.35.56.18.14.42.21.7.21.34 0 .6-.11.78-.32s.26-.5.26-.85c0-.36-.09-.63-.27-.82-.18-.19-.44-.28-.78-.28-.24 0-.45.06-.61.18-.16.12-.28.28-.35.49h-1.17v-3.73h3.94v1.06zM934.77 308.16c-.14-.26-.33-.45-.58-.58-.24-.13-.53-.2-.85-.2-.36 0-.68.08-.96.24-.28.16-.5.4-.65.7-.16.3-.24.65-.24 1.04 0 .41.08.76.24 1.06.16.3.38.53.67.7s.62.24.99.24c.46 0 .84-.12 1.14-.37s.49-.59.58-1.03h-2.09v-.93h3.29v1.06c-.08.42-.26.82-.52 1.18-.27.36-.61.65-1.03.87s-.89.33-1.42.33c-.59 0-1.12-.13-1.59-.4-.47-.26-.84-.63-1.12-1.1-.27-.47-.4-1-.4-1.6 0-.6.13-1.13.4-1.61.27-.47.64-.84 1.12-1.11.47-.26 1-.4 1.58-.4.69 0 1.28.17 1.79.5s.85.8 1.04 1.41h-1.39zM939.1 307.73c.28-.15.59-.22.94-.22.41 0 .79.1 1.12.3s.6.49.79.87c.2.37.29.81.29 1.3s-.1.93-.29 1.31c-.19.38-.46.67-.79.88s-.71.31-1.12.31c-.36 0-.67-.07-.94-.21-.27-.14-.49-.33-.65-.55v.69h-1.22v-6.44h1.22v2.33c.15-.24.37-.43.65-.57zm1.72 1.5c-.12-.21-.28-.37-.47-.48s-.41-.17-.63-.17c-.22 0-.43.06-.62.17-.2.11-.35.28-.47.49-.12.21-.18.47-.18.76 0 .29.06.54.18.76s.28.38.47.49c.19.11.4.17.62.17.23 0 .44-.06.63-.17.19-.12.35-.28.47-.5s.18-.47.18-.77c0-.29-.06-.54-.18-.75zM947.26 307.12h-2.82v1.49c.12-.15.3-.27.52-.37.23-.1.47-.14.72-.14.46 0 .84.1 1.14.31s.51.46.64.78.2.65.2 1.01c0 .67-.19 1.21-.57 1.61s-.92.61-1.62.61c-.66 0-1.19-.17-1.58-.5-.39-.33-.62-.76-.67-1.3h1.18c.05.23.17.42.35.56.18.14.42.21.7.21.34 0 .6-.11.78-.32s.26-.5.26-.85c0-.36-.09-.63-.27-.82-.18-.19-.44-.28-.78-.28-.24 0-.45.06-.61.18-.16.12-.28.28-.35.49h-1.17v-3.73h3.94v1.06zM934.27 321.7h-2.42l-.4 1.16h-1.28l2.19-6.09h1.42l2.19 6.09h-1.29l-.41-1.16zm-.33-.97-.88-2.54-.88 2.54h1.76zM938.64 318.17c.28-.15.59-.22.95-.22.41 0 .79.1 1.12.3.33.2.6.49.79.87s.29.81.29 1.3-.1.93-.29 1.31c-.19.38-.46.67-.79.88-.33.21-.71.31-1.12.31-.36 0-.67-.07-.95-.21-.27-.14-.49-.33-.65-.55v.69h-1.22v-6.44H938v2.33c.15-.23.37-.42.64-.57zm1.73 1.51c-.12-.21-.28-.37-.47-.48s-.4-.17-.63-.17c-.22 0-.43.06-.62.17s-.35.28-.47.49c-.12.21-.18.47-.18.76 0 .29.06.54.18.76.12.21.28.38.47.49s.4.17.62.17c.23 0 .44-.06.63-.17.19-.12.35-.28.47-.5s.18-.47.18-.77c0-.29-.06-.54-.18-.75zM946.81 317.57h-2.82v1.49c.12-.15.3-.27.52-.37.23-.1.47-.14.72-.14.46 0 .84.1 1.14.31s.51.46.64.78.2.65.2 1.01c0 .67-.19 1.21-.57 1.61-.38.41-.92.61-1.62.61-.66 0-1.19-.17-1.58-.5-.4-.33-.62-.76-.67-1.3h1.18c.05.23.17.42.35.56.18.14.42.21.7.21.34 0 .6-.11.77-.32.17-.21.26-.5.26-.85 0-.36-.09-.63-.27-.82s-.44-.28-.78-.28c-.24 0-.45.06-.61.18-.16.12-.28.28-.35.49h-1.17v-3.73h3.94v1.06zM934.83 330.71c.22.28.33.6.33.96 0 .33-.08.61-.24.86-.16.25-.39.44-.69.58s-.66.21-1.07.21h-2.62v-6.08h2.51c.41 0 .77.07 1.07.2.3.13.53.32.68.56.15.24.23.51.23.81 0 .35-.09.65-.28.89-.19.24-.44.41-.75.5.33.06.61.23.83.51zm-3.07-.97h1.12c.29 0 .51-.07.67-.2.16-.13.24-.32.24-.56 0-.24-.08-.43-.24-.57-.16-.13-.38-.2-.67-.2h-1.12v1.53zm1.92 2.37c.17-.14.25-.34.25-.59 0-.26-.09-.47-.26-.61-.17-.15-.41-.22-.71-.22h-1.2v1.64h1.23c.29-.01.52-.08.69-.22zM938.01 328.62c.28-.15.59-.22.95-.22.41 0 .79.1 1.12.3.33.2.6.49.79.87s.29.81.29 1.3-.1.93-.29 1.31c-.19.38-.46.67-.79.88-.33.21-.71.31-1.12.31-.36 0-.67-.07-.95-.21-.27-.14-.49-.33-.65-.55v.69h-1.22v-6.44h1.22v2.33c.16-.23.37-.42.65-.57zm1.72 1.51c-.12-.21-.28-.37-.47-.48s-.4-.17-.63-.17c-.22 0-.43.06-.62.17s-.35.28-.47.49c-.12.21-.18.47-.18.76 0 .29.06.54.18.76.12.21.28.38.47.49s.4.17.62.17c.23 0 .44-.06.63-.17.19-.12.35-.28.47-.5s.18-.47.18-.77c0-.29-.06-.54-.18-.75zM946.17 328.01h-2.82v1.49c.12-.15.3-.27.52-.37.23-.1.47-.14.72-.14.46 0 .84.1 1.14.31s.51.46.64.78.2.65.2 1.01c0 .67-.19 1.21-.57 1.61-.38.41-.92.61-1.62.61-.66 0-1.19-.17-1.58-.5-.4-.33-.62-.76-.67-1.3h1.18c.05.23.17.42.35.56.18.14.42.21.7.21.34 0 .6-.11.77-.32.17-.21.26-.5.26-.85 0-.36-.09-.63-.27-.82s-.44-.28-.78-.28c-.24 0-.45.06-.61.18-.16.12-.28.28-.35.49h-1.17v-3.73h3.94v1.06z"/></g></g><g><path class="st13" d="M441.67 285.99c.36-.57.96-.85 1.81-.85s1.44.28 1.81.85.54 1.36.54 2.36c0 1.01-.18 1.8-.54 2.38s-.97.86-1.81.86-1.44-.29-1.81-.86-.54-1.37-.54-2.38c0-1.01.18-1.79.54-2.36zm2.88 1.27c-.06-.29-.17-.53-.33-.72-.17-.19-.41-.28-.74-.28s-.57.09-.74.28c-.17.19-.28.43-.33.72s-.08.65-.08 1.08c0 .44.03.81.08 1.11s.16.54.33.72c.17.18.42.27.74.27s.57-.09.74-.27c.17-.18.28-.42.33-.72s.08-.67.08-1.11c0-.42-.03-.78-.08-1.08zM449.75 286.29c-.14-.12-.35-.18-.61-.18-.4 0-.7.16-.88.48-.19.32-.29.85-.29 1.57.14-.23.34-.41.61-.54.27-.13.56-.2.87-.2.38 0 .71.08 1 .24.29.16.52.4.68.71s.24.68.24 1.12c0 .41-.08.78-.25 1.1s-.41.57-.73.75c-.32.18-.7.27-1.14.27-.6 0-1.08-.13-1.42-.4-.35-.27-.59-.64-.72-1.12-.14-.48-.2-1.07-.2-1.77 0-1.06.18-1.86.55-2.41.37-.54.94-.81 1.73-.81.61 0 1.08.17 1.42.5.34.33.53.74.58 1.24h-1.13c-.07-.24-.17-.42-.31-.55zm-1.37 2.41c-.21.18-.31.44-.31.78s.1.61.29.81c.19.2.47.3.82.3.31 0 .56-.1.74-.29.18-.19.27-.45.27-.77 0-.34-.09-.6-.27-.8-.18-.2-.44-.3-.78-.3-.29 0-.55.09-.76.27zM441.67 296.44c.36-.57.96-.85 1.81-.85s1.44.28 1.81.85.54 1.36.54 2.36c0 1.01-.18 1.8-.54 2.38s-.97.86-1.81.86-1.44-.29-1.81-.86-.54-1.37-.54-2.38c0-1.01.18-1.79.54-2.36zm2.88 1.27c-.06-.29-.17-.53-.33-.72-.17-.19-.41-.28-.74-.28s-.57.09-.74.28c-.17.19-.28.43-.33.72s-.08.65-.08 1.08c0 .44.03.81.08 1.11s.16.54.33.72c.17.18.42.27.74.27s.57-.09.74-.27c.17-.18.28-.42.33-.72s.08-.67.08-1.11c0-.42-.03-.78-.08-1.08zM450.79 296.63l-2.32 5.43h-1.24l2.33-5.29h-2.98v-1.04h4.2v.9zM441.67 306.89c.36-.57.96-.85 1.81-.85s1.44.28 1.81.85.54 1.36.54 2.36c0 1.01-.18 1.8-.54 2.38s-.97.86-1.81.86-1.44-.29-1.81-.86-.54-1.37-.54-2.38c0-1.01.18-1.79.54-2.36zm2.88 1.27c-.06-.29-.17-.53-.33-.72-.17-.19-.41-.28-.74-.28s-.57.09-.74.28c-.17.19-.28.43-.33.72s-.08.65-.08 1.08c0 .44.03.81.08 1.11s.16.54.33.72c.17.18.42.27.74.27s.57-.09.74-.27c.17-.18.28-.42.33-.72s.08-.67.08-1.11c0-.42-.03-.78-.08-1.08zM446.95 307.74c0-.31.08-.6.24-.86s.4-.46.72-.62.72-.23 1.18-.23c.46 0 .86.08 1.18.23s.56.36.72.62.24.54.24.86c0 .32-.08.6-.24.84s-.37.43-.63.56c.32.14.57.34.75.61.18.27.27.58.27.95 0 .4-.1.74-.3 1.03-.2.29-.47.52-.82.67-.35.16-.74.23-1.18.23-.44 0-.83-.08-1.17-.23s-.62-.38-.82-.67c-.2-.29-.3-.64-.3-1.03 0-.37.09-.68.27-.95.18-.27.43-.47.75-.61-.57-.3-.86-.77-.86-1.4zm1.33 2.19c-.21.17-.31.41-.31.72 0 .29.1.53.3.71.2.18.47.27.81.27.34 0 .61-.09.81-.28.2-.19.3-.42.3-.71 0-.31-.1-.55-.31-.72-.2-.17-.47-.26-.8-.26-.32.01-.59.1-.8.27zm1.51-2.68c-.17-.16-.4-.23-.7-.23-.29 0-.52.08-.69.23-.17.16-.26.38-.26.67 0 .26.09.47.27.63.18.16.4.24.68.24s.51-.08.69-.24c.18-.16.27-.37.27-.63 0-.29-.09-.51-.26-.67zM441.67 317.34c.36-.57.96-.85 1.81-.85s1.44.28 1.81.85.54 1.36.54 2.36c0 1.01-.18 1.8-.54 2.38s-.97.86-1.81.86-1.44-.29-1.81-.86-.54-1.37-.54-2.38c0-1.01.18-1.79.54-2.36zm2.88 1.27c-.06-.29-.17-.53-.33-.72-.17-.19-.41-.28-.74-.28s-.57.09-.74.28c-.17.19-.28.43-.33.72s-.08.65-.08 1.08c0 .44.03.81.08 1.11s.16.54.33.72c.17.18.42.27.74.27s.57-.09.74-.27c.17-.18.28-.42.33-.72s.08-.67.08-1.11c0-.42-.03-.78-.08-1.08zM448.48 321.76c.17.14.39.2.67.2.36 0 .62-.15.78-.45.16-.3.24-.8.24-1.51-.13.19-.32.33-.56.44-.24.1-.5.16-.78.16-.37 0-.71-.08-1.01-.23-.3-.15-.54-.38-.71-.69-.17-.31-.26-.68-.26-1.11 0-.64.19-1.16.57-1.54.38-.38.91-.57 1.57-.57.82 0 1.41.26 1.75.79.34.53.51 1.32.51 2.39 0 .75-.06 1.37-.2 1.85-.13.48-.35.85-.67 1.1s-.75.37-1.29.37c-.43 0-.8-.08-1.1-.25-.3-.17-.53-.38-.69-.65s-.25-.57-.27-.89h1.13c.05.25.16.45.32.59zm1.32-2.44c.17-.19.26-.44.26-.75 0-.34-.09-.61-.27-.8-.18-.19-.43-.28-.74-.28s-.56.1-.74.29c-.18.19-.27.45-.27.77 0 .31.09.56.27.75.18.19.44.29.8.29.28.01.52-.08.69-.27zM440.98 328.18v-1.12h2.1v6.35h-1.25v-5.22h-.85zM444.83 327.79c.36-.57.96-.85 1.81-.85s1.44.28 1.81.85.54 1.36.54 2.36c0 1.01-.18 1.8-.54 2.38s-.97.86-1.81.86-1.44-.29-1.81-.86-.54-1.37-.54-2.38c-.01-1.01.17-1.79.54-2.36zm2.87 1.27c-.06-.29-.17-.53-.33-.72-.17-.19-.41-.28-.74-.28s-.57.09-.74.28c-.17.19-.28.43-.33.72s-.08.65-.08 1.08c0 .44.03.81.08 1.11s.16.54.33.72c.17.18.42.27.74.27s.57-.09.74-.27c.17-.18.28-.42.33-.72s.08-.67.08-1.11c0-.42-.03-.78-.08-1.08z"/><g><path class="st12" d="M460.24 290.28h-2.42l-.4 1.16h-1.28l2.19-6.09h1.42l2.19 6.09h-1.29l-.41-1.16zm-.33-.98-.88-2.54-.88 2.54h1.76zM463.24 285.42c.38-.32.88-.47 1.5-.47.42 0 .79.07 1.09.22.3.15.53.35.68.6s.23.54.23.86c0 .37-.09.67-.28.93-.19.25-.41.42-.67.51v.04c.34.1.6.29.79.56.19.27.28.61.28 1.03 0 .35-.08.66-.24.93s-.4.49-.71.64-.68.23-1.12.23c-.66 0-1.19-.17-1.6-.5-.41-.33-.63-.82-.65-1.46h1.18c.01.28.11.51.29.68.18.17.43.26.75.26.3 0 .52-.08.68-.25s.24-.38.24-.64c0-.35-.11-.6-.33-.75-.22-.15-.56-.23-1.03-.23h-.25v-1h.25c.82 0 1.24-.28 1.24-.83 0-.25-.07-.44-.22-.58-.15-.14-.36-.21-.64-.21-.27 0-.48.07-.63.22s-.23.34-.26.56h-1.19c.04-.59.24-1.04.62-1.35zM460.81 299.28c.22.28.33.6.33.96 0 .33-.08.61-.24.86-.16.25-.39.44-.69.58s-.66.21-1.07.21h-2.62v-6.08h2.51c.41 0 .77.07 1.07.2.3.13.53.32.68.56.15.24.23.51.23.81 0 .35-.09.65-.28.89-.19.24-.44.41-.75.5.33.06.61.23.83.51zm-3.07-.96h1.11c.29 0 .51-.07.67-.2.16-.13.24-.32.24-.56 0-.24-.08-.43-.24-.57-.16-.13-.38-.2-.67-.2h-1.11v1.53zm1.92 2.37c.17-.14.25-.34.25-.59 0-.26-.09-.47-.26-.61s-.41-.22-.71-.22h-1.2v1.64h1.23c.29-.02.52-.09.69-.22zM462.61 295.87c.38-.32.88-.47 1.5-.47.42 0 .79.07 1.09.22.3.15.53.35.68.6s.23.54.23.86c0 .37-.09.67-.28.93-.19.25-.41.42-.67.51v.04c.34.1.6.29.79.56.19.27.28.61.28 1.03 0 .35-.08.66-.24.93s-.4.49-.71.64-.68.23-1.12.23c-.66 0-1.19-.17-1.6-.5-.41-.33-.63-.82-.65-1.46h1.18c.01.28.11.51.29.68.18.17.43.26.75.26.3 0 .52-.08.68-.25s.24-.38.24-.64c0-.35-.11-.6-.33-.75-.22-.15-.56-.23-1.03-.23h-.25v-1h.25c.82 0 1.24-.28 1.24-.83 0-.25-.07-.44-.22-.58-.15-.14-.36-.21-.64-.21-.27 0-.48.07-.63.22s-.23.34-.26.56h-1.19c.03-.59.24-1.04.62-1.35zM456.63 307.68c.27-.47.64-.84 1.11-1.11s.99-.4 1.57-.4c.68 0 1.27.17 1.79.52.51.35.87.83 1.07 1.45h-1.4c-.14-.29-.34-.51-.59-.65-.25-.15-.54-.22-.88-.22-.35 0-.67.08-.94.25-.28.17-.49.4-.64.7-.15.3-.23.66-.23 1.06s.08.75.23 1.06.37.54.64.71c.28.17.59.25.94.25.33 0 .62-.07.88-.22s.45-.37.59-.66h1.4c-.2.62-.56 1.1-1.07 1.45s-1.1.52-1.79.52c-.58 0-1.1-.13-1.57-.4s-.84-.63-1.11-1.1c-.27-.47-.4-1-.4-1.6-.01-.6.13-1.13.4-1.61zM463.01 311.1v-.96l2.85-4.08h1.42v3.97h.77v1.06h-.77v1.24h-1.22v-1.24h-3.05zm3.13-3.73-1.79 2.66h1.79v-2.66zM460.33 317.08c.48.25.86.6 1.12 1.07.26.46.4 1 .4 1.61 0 .61-.13 1.14-.4 1.6-.26.46-.64.81-1.12 1.06-.48.25-1.05.37-1.69.37h-2.12v-6.08h2.12c.64 0 1.2.12 1.69.37zm-.25 4.15c.35-.35.52-.84.52-1.47s-.17-1.13-.52-1.48c-.35-.36-.84-.54-1.48-.54h-.86v4.01h.86c.64 0 1.13-.17 1.48-.52zM462.57 321.55v-.96l2.85-4.08h1.42v3.97h.77v1.06h-.77v1.24h-1.22v-1.24h-3.05zm3.12-3.73-1.79 2.66h1.79v-2.66zM457.74 328.14v1.52h2.05v.97h-2.05v1.61h2.31v.99h-3.53v-6.09h3.53v.99h-2.31zM460.96 332v-.96l2.85-4.08h1.42v3.97h.77V332h-.77v1.24h-1.22V332h-3.05zm3.12-3.73-1.79 2.66h1.79v-2.66z"/></g></g><g><path class="st13" d="M492.4 286.38v-1.12h2.1v6.35h-1.25v-5.22h-.85zM495.55 286.38v-1.12h2.1v6.35h-1.25v-5.22h-.85zM492.4 296.83v-1.12h2.1v6.35h-1.25v-5.22h-.85zM496.08 300.68c.56-.46 1-.85 1.33-1.16.33-.31.61-.63.83-.97.22-.34.33-.67.33-.99 0-.3-.07-.53-.21-.7-.14-.17-.35-.25-.64-.25-.29 0-.51.1-.67.29-.16.19-.24.46-.24.8h-1.18c.02-.7.23-1.22.62-1.58.39-.36.89-.54 1.49-.54.66 0 1.17.18 1.52.53s.53.81.53 1.39c0 .45-.12.89-.37 1.3-.24.41-.52.77-.84 1.08s-.72.67-1.23 1.1h2.57v1.01h-4.3v-.91l.46-.4zM492.4 307.28v-1.12h2.1v6.35h-1.25v-5.22h-.85zM496.33 306.48c.38-.32.88-.47 1.5-.47.42 0 .79.07 1.09.22.3.15.53.35.68.6s.23.54.23.86c0 .37-.09.67-.28.93-.19.25-.41.42-.67.51v.04c.34.1.6.29.79.56.19.27.28.61.28 1.03 0 .35-.08.66-.24.93s-.4.49-.71.64-.68.23-1.12.23c-.66 0-1.19-.17-1.6-.5-.41-.33-.63-.82-.65-1.46h1.18c.01.28.11.51.29.68.18.17.43.26.75.26.3 0 .52-.08.68-.25s.24-.38.24-.64c0-.35-.11-.6-.33-.75-.22-.15-.56-.23-1.03-.23h-.25v-1h.25c.82 0 1.24-.28 1.24-.83 0-.25-.07-.44-.22-.58-.15-.14-.36-.21-.64-.21-.27 0-.48.07-.63.22s-.23.34-.26.56h-1.19c.04-.58.24-1.03.62-1.35zM492.4 317.73v-1.12h2.1v6.35h-1.25v-5.22h-.85zM495.65 321.72v-.96l2.85-4.08h1.42v3.97h.77v1.06h-.77v1.24h-1.22v-1.24h-3.05zm3.13-3.73-1.79 2.66h1.79v-2.66zM492.4 328.18v-1.12h2.1v6.35h-1.25v-5.22h-.85zM499.97 328.11h-2.82v1.49c.12-.15.3-.27.52-.37.23-.1.47-.14.72-.14.46 0 .84.1 1.14.31s.51.46.64.78.2.65.2 1.01c0 .67-.19 1.21-.57 1.61-.38.41-.92.61-1.62.61-.66 0-1.19-.17-1.58-.5-.4-.33-.62-.76-.67-1.3h1.18c.05.23.17.42.35.56.18.14.42.21.7.21.34 0 .6-.11.77-.32.17-.21.26-.5.26-.85 0-.36-.09-.63-.27-.82-.18-.19-.44-.28-.78-.28-.24 0-.45.06-.61.18-.16.12-.28.28-.35.49h-1.17v-3.73h3.94v1.06z"/><g><path class="st12" d="M509.5 285.4v.98h-2.53v1.56h1.94v.97h-1.94v2.57h-1.22v-6.08h3.75zM510.17 290.24v-.96l2.85-4.08h1.42v3.97h.77v1.06h-.77v1.24h-1.22v-1.24h-3.05zm3.13-3.72-1.79 2.66h1.79v-2.66zM509.98 297.68c-.14-.26-.33-.45-.57-.58-.24-.13-.53-.2-.85-.2-.36 0-.68.08-.96.24-.28.16-.5.4-.65.7s-.24.65-.24 1.04c0 .41.08.76.24 1.06s.38.53.67.7c.28.16.62.24.99.24.46 0 .84-.12 1.14-.37.3-.25.49-.59.58-1.03h-2.09v-.93h3.29v1.06c-.08.42-.26.82-.52 1.18s-.61.65-1.03.87-.89.33-1.42.33c-.59 0-1.12-.13-1.59-.4s-.84-.63-1.11-1.1c-.27-.47-.4-1-.4-1.6 0-.6.14-1.13.4-1.61.27-.47.64-.84 1.11-1.11s1-.4 1.58-.4c.69 0 1.28.17 1.79.5s.85.8 1.04 1.41h-1.4zM512.24 300.69v-.96l2.85-4.08h1.42v3.97h.77v1.06h-.77v1.24h-1.22v-1.24h-3.05zm3.13-3.73-1.79 2.66h1.79v-2.66zM505.86 307.72c.27-.47.64-.84 1.11-1.11s.99-.4 1.57-.4c.68 0 1.27.17 1.79.52.51.35.87.83 1.07 1.45H510c-.14-.29-.34-.51-.59-.65-.25-.15-.54-.22-.88-.22-.35 0-.67.08-.94.25-.28.17-.49.4-.64.7-.15.3-.23.66-.23 1.06s.08.75.23 1.06.37.54.64.71c.28.17.59.25.94.25.33 0 .62-.07.88-.22s.45-.37.59-.66h1.4c-.2.62-.56 1.1-1.07 1.45s-1.1.52-1.79.52c-.58 0-1.1-.13-1.57-.4s-.84-.63-1.11-1.1c-.27-.47-.4-1-.4-1.6-.01-.6.13-1.13.4-1.61zM512.24 311.14v-.96l2.85-4.08h1.42v3.97h.77v1.06h-.77v1.24h-1.22v-1.24h-3.05zm3.13-3.73-1.79 2.66h1.79v-2.66zM509.48 321.67h-2.42l-.4 1.16h-1.28l2.19-6.09h1.42l2.19 6.09h-1.29l-.41-1.16zm-.33-.98-.88-2.54-.88 2.54h1.76zM511.79 321.59v-.96l2.85-4.08h1.42v3.97h.77v1.06h-.77v1.24h-1.22v-1.24h-3.05zm3.13-3.73-1.79 2.66h1.79v-2.66zM510.04 330.67c.22.28.33.6.33.96 0 .33-.08.61-.24.86-.16.25-.39.44-.69.58s-.66.21-1.07.21h-2.62v-6.08h2.51c.41 0 .77.07 1.07.2.3.13.53.32.68.56.15.24.23.51.23.81 0 .35-.09.65-.28.89-.19.24-.44.41-.75.5.33.06.61.23.83.51zm-3.07-.96h1.11c.29 0 .51-.07.67-.2.16-.13.24-.32.24-.56 0-.24-.08-.43-.24-.57-.16-.13-.38-.2-.67-.2h-1.11v1.53zm1.92 2.37c.17-.14.25-.34.25-.59 0-.26-.09-.47-.26-.61s-.41-.22-.71-.22h-1.2v1.64h1.23c.29-.02.52-.09.69-.22zM511.16 332.04v-.96l2.85-4.08h1.42v3.97h.77v1.06h-.77v1.24h-1.22v-1.24h-3.05zm3.12-3.73-1.79 2.66h1.79v-2.66z"/></g></g><g><path class="st13" d="M540.28 286.38v-1.12h2.1v6.35h-1.25v-5.22h-.85zM546.58 286.29c-.14-.12-.35-.18-.61-.18-.4 0-.7.16-.88.48-.19.32-.29.85-.29 1.57.14-.23.34-.41.61-.54.27-.13.56-.2.87-.2.38 0 .71.08 1 .24.29.16.52.4.68.71s.24.68.24 1.12c0 .41-.08.78-.25 1.1s-.41.57-.73.75c-.32.18-.7.27-1.14.27-.6 0-1.08-.13-1.42-.4-.35-.27-.59-.64-.72-1.12-.14-.48-.2-1.07-.2-1.77 0-1.06.18-1.86.55-2.41.37-.54.94-.81 1.73-.81.61 0 1.08.17 1.42.5.34.33.53.74.58 1.24h-1.13c-.07-.24-.17-.42-.31-.55zm-1.37 2.41c-.21.18-.31.44-.31.78s.1.61.29.81c.19.2.47.3.82.3.31 0 .56-.1.74-.29.18-.19.27-.45.27-.77 0-.34-.09-.6-.27-.8-.18-.2-.44-.3-.78-.3-.29 0-.55.09-.76.27zM540.28 296.83v-1.12h2.1v6.35h-1.25v-5.22h-.85zM547.62 296.63l-2.32 5.43h-1.24l2.33-5.29h-2.98v-1.04h4.2v.9zM540.28 307.28v-1.12h2.1v6.35h-1.25v-5.22h-.85zM543.78 307.74c0-.31.08-.6.24-.86s.4-.46.72-.62.72-.23 1.18-.23c.46 0 .86.08 1.18.23s.56.36.72.62.24.54.24.86c0 .32-.08.6-.24.84s-.37.43-.63.56c.32.14.57.34.75.61.18.27.27.58.27.95 0 .4-.1.74-.3 1.03-.2.29-.47.52-.82.67-.35.16-.74.23-1.18.23-.44 0-.83-.08-1.17-.23s-.62-.38-.82-.67c-.2-.29-.3-.64-.3-1.03 0-.37.09-.68.27-.95.18-.27.43-.47.75-.61-.57-.3-.86-.77-.86-1.4zm1.33 2.19c-.21.17-.31.41-.31.72 0 .29.1.53.3.71.2.18.47.27.81.27.34 0 .61-.09.81-.28.2-.19.3-.42.3-.71 0-.31-.1-.55-.31-.72-.2-.17-.47-.26-.8-.26-.32.01-.59.1-.8.27zm1.51-2.68c-.17-.16-.4-.23-.7-.23-.29 0-.52.08-.69.23-.17.16-.26.38-.26.67 0 .26.09.47.27.63.18.16.4.24.68.24s.51-.08.69-.24c.18-.16.27-.37.27-.63 0-.29-.09-.51-.26-.67zM540.28 317.73v-1.12h2.1v6.35h-1.25v-5.22h-.85zM545.31 321.76c.17.14.39.2.67.2.36 0 .62-.15.78-.45.16-.3.24-.8.24-1.51-.13.19-.32.33-.56.44-.24.1-.5.16-.78.16-.37 0-.71-.08-1.01-.23-.3-.15-.54-.38-.71-.69-.17-.31-.26-.68-.26-1.11 0-.64.19-1.16.57-1.54.38-.38.91-.57 1.57-.57.82 0 1.41.26 1.75.79.34.53.51 1.32.51 2.39 0 .75-.06 1.37-.2 1.85-.13.48-.35.85-.67 1.1s-.75.37-1.29.37c-.43 0-.8-.08-1.1-.25-.3-.17-.53-.38-.69-.65s-.25-.57-.27-.89h1.13c.05.25.16.45.32.59zm1.32-2.44c.17-.19.26-.44.26-.75 0-.34-.09-.61-.27-.8-.18-.19-.43-.28-.74-.28s-.56.1-.74.29c-.18.19-.27.45-.27.77 0 .31.09.56.27.75.18.19.44.29.8.29.28.01.52-.08.69-.27zM540.81 332.03c.56-.46 1-.85 1.33-1.16.33-.31.61-.63.83-.97.22-.34.33-.67.33-.99 0-.3-.07-.53-.21-.7-.14-.17-.35-.25-.64-.25-.29 0-.51.1-.67.29-.16.19-.24.46-.24.8h-1.18c.02-.7.23-1.22.62-1.58.39-.36.89-.54 1.49-.54.66 0 1.17.18 1.52.53s.53.81.53 1.39c0 .45-.12.89-.37 1.3-.24.41-.52.77-.84 1.08s-.72.67-1.23 1.1h2.57v1.01h-4.3v-.91l.46-.4zM545.97 327.79c.36-.57.96-.85 1.81-.85s1.44.28 1.81.85.54 1.36.54 2.36c0 1.01-.18 1.8-.54 2.38s-.97.86-1.81.86-1.44-.29-1.81-.86-.54-1.37-.54-2.38c0-1.01.18-1.79.54-2.36zm2.88 1.27c-.06-.29-.17-.53-.33-.72-.17-.19-.41-.28-.74-.28s-.57.09-.74.28c-.17.19-.28.43-.33.72s-.08.65-.08 1.08c0 .44.03.81.08 1.11s.16.54.33.72c.17.18.42.27.74.27s.57-.09.74-.27c.17-.18.28-.42.33-.72s.08-.67.08-1.11c0-.42-.03-.78-.08-1.08z"/><g><path class="st12" d="M553.68 286.95c.27-.47.64-.84 1.11-1.11s.99-.4 1.57-.4c.68 0 1.27.17 1.79.52.51.35.87.83 1.07 1.45h-1.4c-.14-.29-.34-.51-.59-.65-.25-.15-.54-.22-.88-.22-.35 0-.67.08-.94.25-.28.17-.49.4-.64.7-.15.3-.23.66-.23 1.06s.08.75.23 1.06.37.54.64.71c.28.17.59.25.94.25.33 0 .62-.07.88-.22s.45-.37.59-.66h1.4c-.2.62-.56 1.1-1.07 1.45s-1.1.52-1.79.52c-.58 0-1.1-.13-1.57-.4s-.84-.63-1.11-1.1c-.27-.47-.4-1-.4-1.6 0-.6.13-1.14.4-1.61zM564.39 286.31h-2.82v1.49c.12-.15.3-.27.52-.37.23-.1.47-.14.72-.14.46 0 .84.1 1.14.31s.51.46.64.78.2.65.2 1.01c0 .67-.19 1.21-.57 1.61-.38.41-.92.61-1.62.61-.66 0-1.19-.17-1.58-.5-.4-.33-.62-.76-.67-1.3h1.18c.05.23.17.42.35.56.18.14.42.21.7.21.34 0 .6-.11.77-.32.17-.21.26-.5.26-.85 0-.36-.09-.63-.27-.82-.18-.19-.44-.28-.78-.28-.24 0-.45.06-.61.18-.16.12-.28.28-.35.49h-1.17v-3.73h3.94v1.06zM557.38 296.35c.48.25.86.6 1.12 1.07.26.46.4 1 .4 1.61 0 .61-.13 1.14-.4 1.6-.26.46-.64.81-1.12 1.06-.48.25-1.05.37-1.69.37h-2.12v-6.08h2.12c.65 0 1.21.12 1.69.37zm-.24 4.15c.35-.35.52-.84.52-1.47s-.17-1.13-.52-1.48c-.35-.36-.84-.54-1.48-.54h-.86v4.01h.86c.63 0 1.13-.18 1.48-.52zM563.95 296.76h-2.82v1.49c.12-.15.3-.27.52-.37.23-.1.47-.14.72-.14.46 0 .84.1 1.14.31s.51.46.64.78.2.65.2 1.01c0 .67-.19 1.21-.57 1.61-.38.41-.92.61-1.62.61-.66 0-1.19-.17-1.58-.5-.4-.33-.62-.76-.67-1.3h1.18c.05.23.17.42.35.56.18.14.42.21.7.21.34 0 .6-.11.77-.32.17-.21.26-.5.26-.85 0-.36-.09-.63-.27-.82-.18-.19-.44-.28-.78-.28-.24 0-.45.06-.61.18-.16.12-.28.28-.35.49h-1.17v-3.73h3.94v1.06zM554.79 307.41v1.52h2.05v.97h-2.05v1.61h2.31v.99h-3.53v-6.09h3.53v.99h-2.31zM562.34 307.21h-2.82v1.49c.12-.15.3-.27.52-.37.23-.1.47-.14.72-.14.46 0 .84.1 1.14.31s.51.46.64.78.2.65.2 1.01c0 .67-.19 1.21-.57 1.61-.38.41-.92.61-1.62.61-.66 0-1.19-.17-1.58-.5-.4-.33-.62-.76-.67-1.3h1.18c.05.23.17.42.35.56.18.14.42.21.7.21.34 0 .6-.11.77-.32.17-.21.26-.5.26-.85 0-.36-.09-.63-.27-.82-.18-.19-.44-.28-.78-.28-.24 0-.45.06-.61.18-.16.12-.28.28-.35.49h-1.17v-3.73h3.94v1.06zM557.33 316.88v.98h-2.53v1.56h1.94v.97h-1.94v2.57h-1.22v-6.08h3.75zM562.32 317.66h-2.82v1.49c.12-.15.3-.27.52-.37.23-.1.47-.14.72-.14.46 0 .84.1 1.14.31s.51.46.64.78.2.65.2 1.01c0 .67-.19 1.21-.57 1.61-.38.41-.92.61-1.62.61-.66 0-1.19-.17-1.58-.5-.4-.33-.62-.76-.67-1.3h1.18c.05.23.17.42.35.56.18.14.42.21.7.21.34 0 .6-.11.77-.32.17-.21.26-.5.26-.85 0-.36-.09-.63-.27-.82-.18-.19-.44-.28-.78-.28-.24 0-.45.06-.61.18-.16.12-.28.28-.35.49h-1.17v-3.73h3.94v1.06zM557.81 329.15c-.14-.26-.33-.45-.57-.58-.24-.13-.53-.2-.85-.2-.36 0-.68.08-.96.24-.28.16-.5.4-.65.7s-.24.65-.24 1.04c0 .41.08.76.24 1.06s.38.53.67.7c.28.16.62.24.99.24.46 0 .84-.12 1.14-.37.3-.25.49-.59.58-1.03h-2.09v-.93h3.29v1.06c-.08.42-.26.82-.52 1.18s-.61.65-1.03.87-.89.33-1.42.33c-.59 0-1.12-.13-1.59-.4s-.84-.63-1.11-1.1c-.27-.47-.4-1-.4-1.6 0-.6.14-1.13.4-1.61.27-.47.64-.84 1.11-1.11s1-.4 1.58-.4c.69 0 1.28.17 1.79.5s.85.8 1.04 1.41h-1.4zM564.39 328.11h-2.82v1.49c.12-.15.3-.27.52-.37.23-.1.47-.14.72-.14.46 0 .84.1 1.14.31s.51.46.64.78.2.65.2 1.01c0 .67-.19 1.21-.57 1.61-.38.41-.92.61-1.62.61-.66 0-1.19-.17-1.58-.5-.4-.33-.62-.76-.67-1.3h1.18c.05.23.17.42.35.56.18.14.42.21.7.21.34 0 .6-.11.77-.32.17-.21.26-.5.26-.85 0-.36-.09-.63-.27-.82-.18-.19-.44-.28-.78-.28-.24 0-.45.06-.61.18-.16.12-.28.28-.35.49h-1.17v-3.73h3.94v1.06z"/></g></g><g><path class="st13" d="M587.07 290.1c.56-.46 1-.85 1.33-1.16.33-.31.61-.63.83-.97.22-.34.33-.67.33-.99 0-.3-.07-.53-.21-.7-.14-.17-.35-.25-.64-.25-.29 0-.51.1-.67.29-.16.19-.24.46-.24.8h-1.18c.02-.7.23-1.22.62-1.58.39-.36.89-.54 1.49-.54.66 0 1.17.18 1.52.53s.53.81.53 1.39c0 .45-.12.89-.37 1.3-.24.41-.52.77-.84 1.08s-.72.67-1.23 1.1h2.57v1.01h-4.3v-.91l.46-.4zM591.54 286.25v-1.12h2.1v6.35h-1.25v-5.22h-.85zM587.07 300.55c.56-.46 1-.85 1.33-1.16.33-.31.61-.63.83-.97.22-.34.33-.67.33-.99 0-.3-.07-.53-.21-.7-.14-.17-.35-.25-.64-.25-.29 0-.51.1-.67.29-.16.19-.24.46-.24.8h-1.18c.02-.7.23-1.22.62-1.58.39-.36.89-.54 1.49-.54.66 0 1.17.18 1.52.53s.53.81.53 1.39c0 .45-.12.89-.37 1.3-.24.41-.52.77-.84 1.08s-.72.67-1.23 1.1h2.57v1.01h-4.3v-.91l.46-.4zM592.07 300.55c.56-.46 1-.85 1.33-1.16.33-.31.61-.63.83-.97.22-.34.33-.67.33-.99 0-.3-.07-.53-.21-.7-.14-.17-.35-.25-.64-.25-.29 0-.51.1-.67.29-.16.19-.24.46-.24.8h-1.18c.02-.7.23-1.22.62-1.58.39-.36.89-.54 1.49-.54.66 0 1.17.18 1.52.53s.53.81.53 1.39c0 .45-.12.89-.37 1.3-.24.41-.52.77-.84 1.08s-.72.67-1.23 1.1h2.57v1.01h-4.3v-.91l.46-.4zM587.07 311c.56-.46 1-.85 1.33-1.16.33-.31.61-.63.83-.97.22-.34.33-.67.33-.99 0-.3-.07-.53-.21-.7-.14-.17-.35-.25-.64-.25-.29 0-.51.1-.67.29-.16.19-.24.46-.24.8h-1.18c.02-.7.23-1.22.62-1.58.39-.36.89-.54 1.49-.54.66 0 1.17.18 1.52.53s.53.81.53 1.39c0 .45-.12.89-.37 1.3-.24.41-.52.77-.84 1.08s-.72.67-1.23 1.1h2.57v1.01h-4.3v-.91l.46-.4zM592.32 306.36c.38-.32.88-.47 1.5-.47.42 0 .79.07 1.09.22.3.15.53.35.68.6s.23.54.23.86c0 .37-.09.67-.28.93-.19.25-.41.42-.67.51v.04c.34.1.6.29.79.56.19.27.28.61.28 1.03 0 .35-.08.66-.24.93s-.4.49-.71.64-.68.23-1.12.23c-.66 0-1.19-.17-1.6-.5-.41-.33-.63-.82-.65-1.46h1.18c.01.28.11.51.29.68.18.17.43.26.75.26.3 0 .52-.08.68-.25s.24-.38.24-.64c0-.35-.11-.6-.33-.75-.22-.15-.56-.23-1.03-.23h-.25v-1h.25c.82 0 1.24-.28 1.24-.83 0-.25-.07-.44-.22-.58-.15-.14-.36-.21-.64-.21-.27 0-.48.07-.63.22s-.23.34-.26.56h-1.19c.03-.59.24-1.04.62-1.35zM587.07 321.45c.56-.46 1-.85 1.33-1.16.33-.31.61-.63.83-.97.22-.34.33-.67.33-.99 0-.3-.07-.53-.21-.7-.14-.17-.35-.25-.64-.25-.29 0-.51.1-.67.29-.16.19-.24.46-.24.8h-1.18c.02-.7.23-1.22.62-1.58.39-.36.89-.54 1.49-.54.66 0 1.17.18 1.52.53s.53.81.53 1.39c0 .45-.12.89-.37 1.3-.24.41-.52.77-.84 1.08s-.72.67-1.23 1.1h2.57v1.01h-4.3v-.91l.46-.4zM591.63 321.59v-.96l2.85-4.08h1.42v3.97h.77v1.06h-.77v1.24h-1.22v-1.24h-3.05zm3.13-3.73-1.79 2.66h1.79v-2.66z"/><g><path class="st12" d="M600.9 286.95c.27-.47.64-.84 1.11-1.11s.99-.4 1.57-.4c.68 0 1.27.17 1.79.52.51.35.87.83 1.07 1.45h-1.4c-.14-.29-.34-.51-.59-.65-.25-.15-.54-.22-.88-.22-.35 0-.67.08-.94.25-.28.17-.49.4-.64.7-.15.3-.23.66-.23 1.06s.08.75.23 1.06.37.54.64.71c.28.17.59.25.94.25.33 0 .62-.07.88-.22s.45-.37.59-.66h1.4c-.2.62-.56 1.1-1.07 1.45s-1.1.52-1.79.52c-.58 0-1.1-.13-1.57-.4s-.84-.63-1.11-1.1c-.27-.47-.4-1-.4-1.6 0-.6.13-1.14.4-1.61zM611.61 286.31h-2.82v1.49c.12-.15.3-.27.52-.37.23-.1.47-.14.72-.14.46 0 .84.1 1.14.31s.51.46.64.78.2.65.2 1.01c0 .67-.19 1.21-.57 1.61-.38.41-.92.61-1.62.61-.66 0-1.19-.17-1.58-.5-.4-.33-.62-.76-.67-1.3h1.18c.05.23.17.42.35.56.18.14.42.21.7.21.34 0 .6-.11.77-.32.17-.21.26-.5.26-.85 0-.36-.09-.63-.27-.82-.18-.19-.44-.28-.78-.28-.24 0-.45.06-.61.18-.16.12-.28.28-.35.49h-1.17v-3.73h3.94v1.06zM604.52 300.9h-2.42l-.4 1.16h-1.28l2.19-6.09h1.42l2.19 6.09h-1.29l-.41-1.16zm-.33-.98-.88-2.54-.88 2.54h1.76zM611.16 296.76h-2.82v1.49c.12-.15.3-.27.52-.37.23-.1.47-.14.72-.14.46 0 .84.1 1.14.31s.51.46.64.78.2.65.2 1.01c0 .67-.19 1.21-.57 1.61-.38.41-.92.61-1.62.61-.66 0-1.19-.17-1.58-.5-.4-.33-.62-.76-.67-1.3h1.18c.05.23.17.42.35.56.18.14.42.21.7.21.34 0 .6-.11.77-.32.17-.21.26-.5.26-.85 0-.36-.09-.63-.27-.82-.18-.19-.44-.28-.78-.28-.24 0-.45.06-.61.18-.16.12-.28.28-.35.49h-1.17v-3.73h3.94v1.06zM605.09 309.9c.22.28.33.6.33.96 0 .33-.08.61-.24.86-.16.25-.39.44-.69.58s-.66.21-1.07.21h-2.62v-6.08h2.51c.41 0 .77.07 1.07.2.3.13.53.32.68.56.15.24.23.51.23.81 0 .35-.09.65-.28.89-.19.24-.44.41-.75.5.32.06.61.23.83.51zm-3.08-.97h1.11c.29 0 .51-.07.67-.2.16-.13.24-.32.24-.56 0-.24-.08-.43-.24-.57-.16-.13-.38-.2-.67-.2h-1.11v1.53zm1.92 2.37c.17-.14.25-.34.25-.59 0-.26-.09-.47-.26-.61s-.41-.22-.71-.22h-1.2v1.64h1.23c.3-.01.53-.08.69-.22zM610.52 307.21h-2.82v1.49c.12-.15.3-.27.52-.37.23-.1.47-.14.72-.14.46 0 .84.1 1.14.31s.51.46.64.78.2.65.2 1.01c0 .67-.19 1.21-.57 1.61-.38.41-.92.61-1.62.61-.66 0-1.19-.17-1.58-.5-.4-.33-.62-.76-.67-1.3h1.18c.05.23.17.42.35.56.18.14.42.21.7.21.34 0 .6-.11.77-.32.17-.21.26-.5.26-.85 0-.36-.09-.63-.27-.82-.18-.19-.44-.28-.78-.28-.24 0-.45.06-.61.18-.16.12-.28.28-.35.49h-1.17v-3.73h3.94v1.06zM600.9 318.3c.27-.47.64-.84 1.11-1.11s.99-.4 1.57-.4c.68 0 1.27.17 1.79.52.51.35.87.83 1.07 1.45h-1.4c-.14-.29-.34-.51-.59-.65-.25-.15-.54-.22-.88-.22-.35 0-.67.08-.94.25-.28.17-.49.4-.64.7-.15.3-.23.66-.23 1.06s.08.75.23 1.06.37.54.64.71c.28.17.59.25.94.25.33 0 .62-.07.88-.22s.45-.37.59-.66h1.4c-.2.62-.56 1.1-1.07 1.45s-1.1.52-1.79.52c-.58 0-1.1-.13-1.57-.4s-.84-.63-1.11-1.1c-.27-.47-.4-1-.4-1.6 0-.6.13-1.14.4-1.61zM610.33 317.64c-.14-.12-.35-.18-.61-.18-.4 0-.7.16-.88.48-.19.32-.29.85-.29 1.57.14-.23.34-.41.61-.54.27-.13.56-.2.87-.2.38 0 .71.08 1 .24.29.16.52.4.68.71s.24.68.24 1.12c0 .41-.08.78-.25 1.1s-.41.57-.73.75c-.32.18-.7.27-1.14.27-.6 0-1.08-.13-1.42-.4-.35-.27-.59-.64-.72-1.12-.14-.48-.2-1.07-.2-1.77 0-1.06.18-1.86.55-2.41.37-.54.94-.81 1.73-.81.61 0 1.08.17 1.42.5.34.33.53.74.58 1.24h-1.13c-.07-.24-.17-.43-.31-.55zm-1.36 2.41c-.21.18-.31.44-.31.78s.1.61.29.81c.19.2.47.3.82.3.31 0 .56-.1.74-.29.18-.19.27-.45.27-.77 0-.34-.09-.6-.27-.8-.18-.2-.44-.3-.78-.3-.29 0-.55.09-.76.27z"/></g></g><g><path class="st13" d="m475.67 272.4-1.59 6.11h-1.8l-.98-4.02-1.01 4.02h-1.8l-1.55-6.11h1.59l.88 4.45 1.09-4.45h1.64l1.04 4.45.89-4.45h1.6zM483.46 272.4v6.11h-1.49V276h-2.32v2.52h-1.49v-6.11h1.49v2.39h2.32v-2.39h1.49zM487.76 272.4v6.11h-1.49v-6.11h1.49zM494.98 272.4v1.19h-1.62v4.92h-1.49v-4.92h-1.62v-1.19h4.73zM498.96 273.59v1.24h1.99v1.15h-1.99v1.34h2.26v1.19h-3.74v-6.11h3.74v1.19h-2.26zM511.05 278.51l-2.06-2.7v2.7h-1.49v-6.11h1.5v2.68l2.04-2.68h1.75l-2.37 3 2.46 3.12h-1.83zM516.81 273.59v1.24h1.99v1.15h-1.99v1.34h2.26v1.19h-3.74v-6.11h3.74v1.19h-2.26zM527.01 272.4l-2.12 4.09v2.02h-1.49v-2.02l-2.12-4.09h1.69l1.18 2.56 1.18-2.56h1.68zM530.37 278.36c-.35-.15-.64-.36-.85-.64-.21-.28-.32-.63-.34-1.03h1.58c.02.23.1.4.23.52s.31.18.52.18c.22 0 .4-.05.52-.15.13-.1.19-.24.19-.42 0-.15-.05-.28-.15-.37-.1-.1-.23-.18-.37-.24-.15-.06-.36-.14-.63-.22-.4-.12-.72-.24-.97-.37-.25-.12-.46-.3-.64-.54-.18-.24-.27-.55-.27-.93 0-.57.21-1.01.62-1.34s.95-.48 1.61-.48c.67 0 1.22.16 1.63.48s.63.77.66 1.35h-1.61c-.01-.2-.08-.35-.22-.47-.13-.11-.3-.17-.51-.17-.18 0-.33.05-.44.14s-.17.23-.17.41c0 .2.09.35.28.46.19.11.48.23.87.36.39.13.72.26.96.38.25.12.46.3.64.53.18.23.27.53.27.9 0 .35-.09.66-.27.95-.18.28-.43.51-.77.68-.34.17-.73.25-1.19.25-.43-.01-.83-.08-1.18-.22z"/></g><g><path class="st13" d="M844.35 276.1c.21.28.32.59.32.94 0 .51-.18.92-.54 1.21-.36.3-.85.45-1.49.45h-2.85v-6.11h2.75c.62 0 1.11.14 1.46.43.35.28.53.67.53 1.16 0 .36-.09.66-.28.9-.19.24-.44.4-.75.5.35.07.64.25.85.52zm-3.06-1.03h.98c.24 0 .43-.05.56-.16.13-.11.2-.27.2-.47s-.07-.37-.2-.48c-.13-.11-.32-.17-.56-.17h-.98v1.28zm1.67 2.27c.14-.11.21-.28.21-.49s-.07-.38-.21-.51c-.14-.12-.34-.18-.59-.18h-1.08v1.35h1.1c.25 0 .44-.06.57-.17zM848.77 277.56h1.95v1.15h-3.44v-6.11h1.49v4.96zM856.98 277.63h-2.28l-.37 1.08h-1.56l2.21-6.11h1.72l2.21 6.11h-1.58l-.35-1.08zm-.38-1.15-.76-2.24-.75 2.24h1.51zM861.47 274.03c.26-.47.63-.84 1.09-1.11.47-.26 1-.4 1.59-.4.73 0 1.35.19 1.86.57s.86.91 1.04 1.57h-1.64c-.12-.26-.29-.45-.52-.58-.22-.13-.48-.2-.76-.2-.46 0-.83.16-1.12.48-.28.32-.43.75-.43 1.28s.14.96.43 1.28c.29.32.66.48 1.12.48.28 0 .54-.07.76-.2.22-.13.4-.33.52-.58h1.64c-.17.66-.52 1.18-1.04 1.56s-1.14.57-1.86.57c-.59 0-1.12-.13-1.59-.4-.47-.26-.83-.63-1.09-1.1-.26-.47-.39-1.01-.39-1.61 0-.6.13-1.14.39-1.61zM873.26 278.71l-2.06-2.7v2.7h-1.49v-6.11h1.49v2.68l2.04-2.68h1.75l-2.37 3 2.46 3.12h-1.82zM884.65 278.71l-2.05-2.7v2.7h-1.49v-6.11h1.49v2.68l2.04-2.68h1.75l-2.37 3 2.46 3.12h-1.83zM890.41 273.79v1.24h1.99v1.15h-1.99v1.34h2.25v1.19h-3.74v-6.11h3.74v1.19h-2.25zM900.62 272.6l-2.12 4.09v2.02h-1.49v-2.02l-2.12-4.09h1.69l1.18 2.56 1.18-2.56h1.68zM903.97 278.56c-.35-.15-.64-.36-.85-.64-.21-.28-.32-.63-.33-1.03h1.58c.02.23.1.4.23.52s.31.18.52.18c.22 0 .4-.05.52-.15.13-.1.19-.24.19-.42 0-.15-.05-.28-.15-.37-.1-.1-.23-.18-.38-.24s-.36-.14-.63-.22c-.4-.12-.72-.24-.97-.37-.25-.12-.46-.3-.64-.54-.18-.24-.27-.55-.27-.93 0-.57.21-1.01.62-1.34s.95-.48 1.61-.48c.67 0 1.22.16 1.63.48s.63.77.66 1.35h-1.61c-.01-.2-.08-.35-.22-.47s-.3-.17-.51-.17c-.18 0-.33.05-.44.14s-.17.23-.17.41c0 .2.09.35.28.46s.48.23.87.36c.39.13.71.26.96.38s.46.3.64.53c.18.23.27.53.27.9 0 .35-.09.66-.27.95-.18.28-.43.51-.77.68-.34.17-.73.25-1.19.25-.43-.01-.83-.08-1.18-.22z"/></g><g><path class="st12" d="M655.82 408.74c.26-.47.63-.84 1.09-1.11.47-.26 1-.4 1.59-.4.73 0 1.35.19 1.86.57.52.38.86.91 1.04 1.57h-1.64c-.12-.25-.29-.45-.52-.58-.22-.13-.48-.2-.76-.2-.46 0-.83.16-1.11.48-.28.32-.43.75-.43 1.28s.14.96.43 1.28c.28.32.66.48 1.11.48.28 0 .54-.07.76-.2.22-.13.4-.33.52-.58h1.64c-.17.66-.52 1.18-1.04 1.56-.52.38-1.14.57-1.86.57-.59 0-1.12-.13-1.59-.4-.47-.26-.83-.63-1.09-1.1-.26-.47-.39-1.01-.39-1.61s.12-1.14.39-1.61zM665.36 413.08c-.48-.27-.86-.64-1.14-1.12-.28-.48-.42-1.02-.42-1.62s.14-1.13.42-1.61c.28-.48.66-.85 1.14-1.11.48-.27 1.01-.4 1.58-.4s1.1.13 1.58.4.86.64 1.13 1.11c.28.48.41 1.01.41 1.61s-.14 1.14-.42 1.62c-.28.48-.66.85-1.13 1.12s-1 .4-1.58.4-1.09-.13-1.57-.4zm2.76-1.45c.29-.33.44-.75.44-1.29s-.15-.97-.44-1.29-.68-.48-1.17-.48c-.49 0-.89.16-1.18.48-.29.32-.44.75-.44 1.3 0 .54.15.97.44 1.29s.69.48 1.18.48c.48 0 .87-.16 1.17-.49zM674.1 407.31v3.66c0 .37.09.65.27.84.18.2.44.3.79.3.35 0 .62-.1.8-.3.19-.2.28-.48.28-.84v-3.66h1.49v3.65c0 .55-.12 1.01-.35 1.38-.23.38-.54.66-.94.85s-.83.29-1.31.29-.91-.09-1.29-.28c-.38-.19-.68-.47-.9-.85-.22-.38-.33-.84-.33-1.39v-3.65h1.49zM685.99 413.42h-1.49l-2.49-3.77v3.77h-1.49v-6.11h1.49l2.49 3.79v-3.79h1.49v6.11zM693.21 407.31v1.19h-1.62v4.92h-1.49v-4.92h-1.62v-1.19h4.73zM697.19 408.5v1.24h1.99v1.15h-1.99v1.34h2.25v1.19h-3.74v-6.11h3.74v1.19h-2.25zM705.27 413.42l-1.27-2.31h-.36v2.31h-1.49v-6.11h2.5c.48 0 .89.08 1.23.25.34.17.59.4.76.69.17.29.25.62.25.98 0 .41-.11.77-.34 1.09s-.57.55-1.01.68l1.41 2.42h-1.68zm-1.63-3.36h.92c.27 0 .48-.07.61-.2s.21-.32.21-.57c0-.23-.07-.42-.21-.55-.14-.13-.34-.2-.61-.2h-.92v1.52z"/></g><path class="st14" d="M545.97 275.71h63.61c5.4 0 9.78 4.6 9.78 10.28v42.72c0 5.68-4.38 10.28-9.78 10.28H396.16c-5.4 0-9.78-4.6-9.78-10.28v-42.72c0-5.68 4.38-10.28 9.78-10.28h59.21M925.3 274.71h42.96c5.12 0 9.27 4.6 9.27 10.28v42.72c0 5.68-4.15 10.28-9.27 10.28H766.03c-5.12 0-9.27-4.6-9.27-10.28v-42.72c0-5.68 4.15-10.28 9.27-10.28h57.7"/><g><path class="st12" d="m485.21 361.47-1.79 4.89h-1.19l-1.79-4.89h1.05l1.34 3.89 1.34-3.89h1.04zM488.21 366.08c-.38-.21-.69-.51-.91-.89-.22-.38-.34-.81-.34-1.29s.11-.9.34-1.28.53-.68.91-.89c.38-.21.8-.32 1.26-.32.46 0 .88.11 1.26.32.38.21.68.51.9.89s.33.81.33 1.28c0 .48-.11.91-.33 1.29-.22.38-.52.68-.91.89-.38.21-.8.32-1.26.32s-.87-.1-1.25-.32zm2.04-.75c.22-.13.4-.32.53-.57.13-.25.19-.53.19-.86 0-.33-.06-.61-.19-.86s-.3-.43-.53-.56c-.22-.13-.48-.2-.78-.2s-.55.07-.78.2c-.23.13-.4.32-.53.56s-.19.53-.19.86c0 .33.06.61.19.86s.3.44.53.57c.23.13.49.2.78.2s.55-.07.78-.2zM495.08 365.58h1.61v.78h-2.59v-4.89h.98v4.11zM499.68 361.47v3.02c0 .33.09.58.26.76.17.17.42.26.73.26.32 0 .56-.09.73-.26.17-.17.26-.43.26-.76v-3.02h.99v3.02c0 .42-.09.77-.27 1.05s-.42.5-.72.65c-.3.14-.64.22-1 .22s-.69-.07-.99-.22-.53-.36-.7-.65c-.17-.29-.26-.64-.26-1.05v-3.02h.97zM510.32 361.47v4.89h-.98v-3.18l-1.31 3.18h-.74l-1.32-3.18v3.18h-.98v-4.89h1.11l1.55 3.63 1.55-3.63h1.12zM513.66 362.26v1.23h1.65v.78h-1.65v1.29h1.85v.8h-2.83v-4.89h2.83v.8h-1.85z"/></g><path class="st9" d="M544.94 372.18h-58.05c-5.01 0-9.06 4.06-9.06 9.06 0 5.01 4.06 9.06 9.06 9.06h58.05c5.01 0 9.06-4.06 9.06-9.06 0-5.01-4.05-9.06-9.06-9.06z"/><g><path class="st10" d="M544.76 372.18h-11.29c-5.01 0-9.06 4.06-9.06 9.06 0 5.01 4.06 9.06 9.06 9.06h11.29c5.01 0 9.06-4.06 9.06-9.06 0-5.01-4.05-9.06-9.06-9.06z"/><circle class="st11" cx="539.12" cy="381.24" r="6.84"/></g><circle class="st9" cx="819.34" cy="381.16" r="26.12"/><circle cx="819.34" cy="381.16" r="19.39" style="fill:#533a91;stroke:#533a91;stroke-miterlimit:10"/><g><path class="st13" d="M800.42 357.76c-.38.06-.73.02-1.06-.11-.33-.13-.6-.37-.82-.71l1.36-.82c.14.18.29.29.47.32.18.03.36-.01.54-.12.19-.11.31-.25.37-.4.06-.15.04-.31-.05-.46-.08-.13-.19-.21-.32-.24-.14-.03-.29-.04-.45-.02-.16.02-.38.07-.65.14-.4.1-.74.16-1.02.19-.28.02-.55-.02-.83-.13-.28-.11-.51-.33-.71-.66-.29-.49-.35-.98-.16-1.46s.56-.9 1.13-1.25c.58-.35 1.13-.49 1.64-.43.52.06.94.33 1.26.81l-1.38.83c-.11-.16-.25-.26-.43-.29-.17-.03-.35.01-.53.12-.15.09-.25.21-.3.35-.04.14-.02.29.07.44.1.17.26.25.48.25.22 0 .53-.05.93-.14.41-.09.75-.15 1.02-.17s.55.02.82.13c.27.11.5.32.69.63.18.3.27.62.26.95s-.11.66-.31.98-.5.6-.89.83c-.38.23-.76.38-1.13.44zM807.66 347.87l.41 1.12-1.52.55 1.67 4.63-1.4.51-1.67-4.63-1.52.55-.41-1.12 4.44-1.61zM815.49 351.47l-2.26.31-.21 1.12-1.54.21 1.35-6.36 1.71-.24 3.03 5.75-1.56.22-.52-1.01zm-.54-1.08-1.06-2.11-.43 2.32 1.49-.21zM822.8 352.54l-1.09-2.4-.36-.03-.18 2.3-1.48-.12.48-6.09 2.49.2c.48.04.88.15 1.21.35.33.19.56.44.71.75.14.31.2.64.17 1-.03.41-.17.76-.43 1.06s-.61.5-1.06.6l1.22 2.52-1.68-.14zm-1.37-3.48.92.07c.27.02.48-.03.63-.15s.23-.31.25-.55c.02-.23-.04-.42-.16-.56-.13-.14-.33-.23-.6-.25l-.92-.07-.12 1.51zM832.69 348.46l-.33 1.15-1.56-.44-1.35 4.73-1.43-.41 1.35-4.73-1.56-.44.33-1.15 4.55 1.29z"/></g><path class="st17" d="M839.02 356.2c7.37 5.82 12.1 14.84 12.1 24.96 0 17.55-14.23 31.78-31.78 31.78s-31.78-14.23-31.78-31.78c0-5.62 1.46-10.9 4.02-15.48.18-.28.43-.67.76-1.14"/><circle class="st9" cx="910.34" cy="382.34" r="26.12"/><circle cx="910.34" cy="382.34" r="19.39" style="fill:#c9b8ff;stroke:#c9b8ff;stroke-miterlimit:10"/><g><path class="st13" d="m893.28 358-2.27-1.33-.31.18 1.18 1.98-1.28.76-3.13-5.25 2.15-1.28c.41-.25.81-.39 1.19-.41.38-.03.71.04 1.01.2.29.17.54.4.72.71.21.35.3.72.26 1.11-.03.39-.21.76-.52 1.1l2.45 1.36-1.45.87zm-3.12-2.06.79-.47c.23-.14.38-.3.42-.49s.01-.38-.11-.59c-.12-.2-.27-.32-.46-.37s-.4 0-.63.14l-.79.47.78 1.31zM896.64 351.05l.42 1.16 1.88-.67.39 1.08-1.88.67.45 1.26 2.12-.76.4 1.12-3.53 1.26-2.06-5.75 3.53-1.26.4 1.12-2.12.77zM903.76 353.98c-.37-.09-.68-.26-.94-.5s-.42-.57-.49-.96l1.57-.25c.06.22.16.38.31.48s.33.13.54.1c.22-.03.38-.11.49-.23s.15-.27.12-.45c-.02-.15-.09-.26-.21-.35-.12-.08-.25-.14-.41-.18-.16-.04-.38-.08-.66-.12-.41-.06-.75-.13-1.01-.21-.27-.08-.51-.23-.72-.43-.21-.21-.35-.5-.41-.88-.09-.56.05-1.03.4-1.42.36-.38.86-.62 1.52-.73.67-.1 1.23-.03 1.68.23s.74.66.86 1.23l-1.59.25c-.04-.19-.14-.34-.29-.43-.15-.09-.33-.12-.53-.09-.18.03-.31.1-.41.21-.09.11-.13.26-.1.43.03.2.15.33.35.41.2.08.51.15.92.22.41.07.75.15 1.01.23.26.08.5.22.71.43.21.2.35.48.41.84.05.34.02.67-.12.98s-.35.57-.66.79c-.31.22-.69.36-1.14.43-.42.07-.83.06-1.2-.03zM914.2 347.56l-.05 1.19-1.62-.07-.2 4.92-1.49-.06.2-4.92-1.62-.07.05-1.19 4.73.2zM920.1 353.83l-2.21-.56-.62.96-1.51-.38 3.64-5.38 1.67.42.65 6.47-1.53-.39-.09-1.14zm-.09-1.21-.19-2.36-1.27 1.99 1.46.37zM926.48 357.58l-.1-2.63-.32-.16-1.04 2.06-1.33-.67 2.75-5.46 2.23 1.12c.43.22.76.48.99.78.23.3.35.62.37.96s-.05.67-.21.99c-.18.36-.45.64-.8.82s-.75.23-1.21.15l.17 2.8-1.5-.76zm.05-3.74.83.42c.24.12.46.15.64.1.18-.06.33-.2.44-.41.1-.21.13-.4.06-.58-.06-.18-.21-.33-.46-.45l-.83-.41-.68 1.33zM937.17 357.56l-.74.94-1.27-1-3.05 3.86-1.17-.92 3.05-3.86-1.27-1 .74-.94 3.71 2.92z"/></g><path class="st17" d="M940.42 372.07c1.1 3.22 1.7 6.68 1.7 10.27 0 17.55-14.23 31.78-31.78 31.78s-31.78-14.23-31.78-31.78c0-5.62 1.46-10.9 4.02-15.48"/><g><path class="st19" d="M494.32 207.68c-.86-1.66-2.06-2.92-3.6-3.77-1.54-.85-3.31-1.27-5.33-1.27-2.21 0-4.18.5-5.9 1.49-1.73.99-3.08 2.4-4.06 4.22-.98 1.82-1.46 3.94-1.46 6.34s.49 4.52 1.46 6.36c.98 1.84 2.33 3.26 4.06 4.25 1.73.99 3.7 1.49 5.9 1.49 2.98 0 5.39-.83 7.25-2.5 1.86-1.66 2.99-3.92 3.41-6.77h-12.53v-4.37h18.38v4.27c-.35 2.59-1.27 4.98-2.76 7.15-1.49 2.18-3.42 3.91-5.81 5.21-2.38 1.3-5.03 1.94-7.94 1.94-3.14 0-6-.73-8.59-2.18-2.59-1.46-4.65-3.48-6.17-6.07-1.52-2.59-2.28-5.52-2.28-8.78s.76-6.19 2.28-8.78c1.52-2.59 3.58-4.62 6.19-6.07 2.61-1.46 5.46-2.18 8.57-2.18 3.55 0 6.71.87 9.48 2.62 2.77 1.74 4.78 4.22 6.02 7.42h-6.57zM522.35 202.5v9.79h11.52v4.46h-11.52v10.22h12.96v4.46h-18.43v-33.41h18.43v4.46h-12.96zM579.04 231.44h-5.47l-16.46-24.91v24.91h-5.47v-33.41h5.47l16.46 24.86v-24.86h5.47v33.41zM601.31 198.08v33.36h-5.47v-33.36h5.47zM623.53 198.08v21.26c0 2.53.66 4.43 1.99 5.71 1.33 1.28 3.18 1.92 5.54 1.92 2.4 0 4.26-.64 5.59-1.92 1.33-1.28 1.99-3.18 1.99-5.71v-21.26h5.47v21.17c0 2.72-.59 5.02-1.78 6.91-1.18 1.89-2.77 3.3-4.75 4.22-1.98.93-4.18 1.39-6.58 1.39-2.4 0-4.58-.46-6.55-1.39-1.97-.93-3.53-2.34-4.68-4.22-1.15-1.89-1.73-4.19-1.73-6.91v-21.17h5.49zM665.77 230.6c-1.79-.78-3.2-1.9-4.22-3.34-1.02-1.44-1.54-3.12-1.54-5.04h5.86c.13 1.44.7 2.62 1.7 3.55 1.01.93 2.42 1.39 4.25 1.39 1.89 0 3.36-.46 4.42-1.37 1.06-.91 1.58-2.09 1.58-3.53 0-1.12-.33-2.03-.98-2.74-.66-.7-1.47-1.25-2.45-1.63-.98-.38-2.33-.8-4.06-1.25-2.18-.58-3.94-1.16-5.3-1.75-1.36-.59-2.52-1.51-3.48-2.76s-1.44-2.91-1.44-4.99c0-1.92.48-3.6 1.44-5.04s2.3-2.54 4.03-3.31 3.73-1.15 6-1.15c3.23 0 5.88.81 7.94 2.42 2.06 1.62 3.21 3.83 3.43 6.65h-6.05c-.1-1.22-.67-2.26-1.73-3.12-1.06-.86-2.45-1.3-4.18-1.3-1.57 0-2.85.4-3.84 1.2-.99.8-1.49 1.95-1.49 3.46 0 1.02.31 1.86.94 2.52.62.66 1.42 1.18 2.38 1.56.96.38 2.27.8 3.94 1.25 2.21.61 4.01 1.22 5.4 1.82 1.39.61 2.58 1.54 3.55 2.81.98 1.26 1.46 2.95 1.46 5.06 0 1.7-.46 3.3-1.37 4.8-.91 1.5-2.24 2.71-3.98 3.62-1.74.91-3.8 1.37-6.17 1.37-2.23.02-4.25-.38-6.04-1.16zM743.63 212.82c-.8 1.5-2.08 2.73-3.84 3.67-1.76.94-4.02 1.42-6.77 1.42h-6.05v13.54h-5.47v-33.36h11.52c2.56 0 4.73.44 6.5 1.32 1.78.88 3.1 2.07 3.98 3.58.88 1.5 1.32 3.18 1.32 5.04.01 1.68-.4 3.28-1.19 4.79zm-5.96-.8c1.02-.94 1.54-2.28 1.54-4.01 0-3.65-2.06-5.47-6.19-5.47h-6.05v10.9h6.05c2.08 0 3.63-.47 4.65-1.42zM765.13 198.08v33.36h-5.47v-33.36h5.47zM802.04 224.62h-13.97l-2.4 6.82h-5.71l11.95-33.41h6.34l11.95 33.41h-5.76l-2.4-6.82zm-1.54-4.46-5.42-15.5-5.47 15.5h10.89zM852.39 231.44h-5.47l-16.46-24.91v24.91h-5.47v-33.41h5.47l16.46 24.86v-24.86h5.47v33.41zM875.84 229.59c-2.61-1.46-4.67-3.49-6.19-6.1-1.52-2.61-2.28-5.54-2.28-8.81s.76-6.19 2.28-8.78c1.52-2.59 3.58-4.62 6.19-6.07 2.61-1.46 5.46-2.18 8.57-2.18 3.14 0 6.01.73 8.62 2.18 2.61 1.46 4.66 3.48 6.17 6.07 1.5 2.59 2.26 5.52 2.26 8.78s-.75 6.2-2.26 8.81c-1.5 2.61-3.56 4.64-6.17 6.1s-5.48 2.18-8.62 2.18c-3.11.01-5.96-.72-8.57-2.18zm14.47-4.08c1.73-1.01 3.08-2.45 4.06-4.32.98-1.87 1.46-4.04 1.46-6.5s-.49-4.62-1.46-6.48c-.98-1.86-2.33-3.28-4.06-4.27-1.73-.99-3.7-1.49-5.9-1.49s-4.18.5-5.9 1.49c-1.73.99-3.08 2.42-4.06 4.27-.98 1.86-1.46 4.02-1.46 6.48 0 2.46.49 4.63 1.46 6.5.98 1.87 2.33 3.31 4.06 4.32 1.73 1.01 3.7 1.51 5.9 1.51s4.17-.5 5.9-1.51z"/></g><g><path class="st20" d="M480.4 396.27c-.17-.17-.25-.37-.25-.62 0-.24.08-.45.25-.62s.37-.25.62-.25c.23 0 .43.08.6.25.16.17.25.37.25.62 0 .24-.08.45-.25.62-.16.17-.36.25-.6.25-.25.01-.45-.08-.62-.25z"/><path class="st21" d="M486.14 396.27c-.17-.17-.25-.37-.25-.62 0-.24.08-.45.25-.62s.37-.25.62-.25c.23 0 .43.08.6.25.16.17.25.37.25.62 0 .24-.08.45-.25.62-.16.17-.36.25-.6.25-.25.01-.45-.08-.62-.25zM491.88 396.27c-.17-.17-.25-.37-.25-.62 0-.24.08-.45.25-.62s.37-.25.62-.25c.23 0 .43.08.6.25.16.17.25.37.25.62 0 .24-.08.45-.25.62-.16.17-.36.25-.6.25-.25.01-.45-.08-.62-.25zM497.62 396.27c-.17-.17-.25-.37-.25-.62 0-.24.08-.45.25-.62s.37-.25.62-.25c.23 0 .43.08.6.25.16.17.25.37.25.62 0 .24-.08.45-.25.62-.16.17-.36.25-.6.25-.25.01-.45-.08-.62-.25z"/><path class="st22" d="M503.36 396.27c-.17-.17-.25-.37-.25-.62 0-.24.08-.45.25-.62s.37-.25.62-.25c.23 0 .43.08.6.25.16.17.25.37.25.62 0 .24-.08.45-.25.62-.16.17-.36.25-.6.25-.25.01-.45-.08-.62-.25zM509.1 396.27c-.17-.17-.25-.37-.25-.62 0-.24.08-.45.25-.62s.37-.25.62-.25c.23 0 .43.08.6.25.16.17.25.37.25.62 0 .24-.08.45-.25.62-.16.17-.36.25-.6.25-.25.01-.45-.08-.62-.25zM514.84 396.27c-.17-.17-.25-.37-.25-.62 0-.24.08-.45.25-.62s.37-.25.62-.25c.23 0 .43.08.6.25.16.17.25.37.25.62 0 .24-.08.45-.25.62-.16.17-.36.25-.6.25-.25.01-.45-.08-.62-.25zM520.58 396.27c-.17-.17-.25-.37-.25-.62 0-.24.08-.45.25-.62s.37-.25.62-.25c.23 0 .43.08.6.25.16.17.25.37.25.62 0 .24-.08.45-.25.62-.16.17-.36.25-.6.25-.25.01-.45-.08-.62-.25zM526.32 396.27c-.17-.17-.25-.37-.25-.62 0-.24.08-.45.25-.62s.37-.25.62-.25c.23 0 .43.08.6.25.16.17.25.37.25.62 0 .24-.08.45-.25.62-.16.17-.36.25-.6.25-.25.01-.45-.08-.62-.25z"/><path class="st23" d="M532.06 396.27c-.17-.17-.25-.37-.25-.62 0-.24.08-.45.25-.62s.37-.25.62-.25c.23 0 .43.08.6.25.16.17.25.37.25.62 0 .24-.08.45-.25.62-.16.17-.36.25-.6.25-.25.01-.45-.08-.62-.25zM537.8 396.27c-.17-.17-.25-.37-.25-.62 0-.24.08-.45.25-.62s.37-.25.62-.25c.23 0 .43.08.6.25.16.17.25.37.25.62 0 .24-.08.45-.25.62-.16.17-.36.25-.6.25-.25.01-.45-.08-.62-.25zM543.54 396.27c-.17-.17-.25-.37-.25-.62 0-.24.08-.45.25-.62s.37-.25.62-.25c.23 0 .43.08.6.25.16.17.25.37.25.62 0 .24-.08.45-.25.62-.16.17-.36.25-.6.25-.25.01-.45-.08-.62-.25z"/><path class="st24" d="M549.28 396.27c-.17-.17-.25-.37-.25-.62 0-.24.08-.45.25-.62s.37-.25.62-.25c.23 0 .43.08.6.25.16.17.25.37.25.62 0 .24-.08.45-.25.62-.16.17-.36.25-.6.25-.25.01-.45-.08-.62-.25z"/></g><g><path class="st20" d="M392.99 396.27c-.17-.17-.25-.37-.25-.62 0-.24.08-.45.25-.62s.37-.25.62-.25c.23 0 .43.08.6.25.16.17.25.37.25.62 0 .24-.08.45-.25.62-.16.17-.36.25-.6.25-.25.01-.46-.08-.62-.25z"/><path class="st24" d="M431.42 396.27c-.17-.17-.25-.37-.25-.62 0-.24.08-.45.25-.62s.37-.25.62-.25c.23 0 .43.08.6.25.16.17.25.37.25.62 0 .24-.08.45-.25.62-.16.17-.36.25-.6.25-.25.01-.46-.08-.62-.25z"/></g><g><path class="st12" d="M479.68 402.88v3.49h-.7v-2.27l-.94 2.27h-.53l-.94-2.27v2.27h-.7v-3.49h.79l1.11 2.6 1.11-2.6h.8zM482.07 402.88v3.49h-.7v-3.49h.7zM486.75 406.37h-.7l-1.58-2.39v2.39h-.7v-3.5h.7l1.58 2.4v-2.4h.7v3.5z"/></g><g><path class="st12" d="M387.41 406.17c-.27-.15-.49-.37-.65-.64-.16-.27-.24-.58-.24-.92 0-.34.08-.65.24-.92.16-.27.38-.48.65-.64.27-.15.57-.23.9-.23.33 0 .63.08.9.23.27.15.49.37.65.64.16.27.24.58.24.92 0 .34-.08.65-.24.92-.16.27-.37.48-.65.64-.27.15-.57.23-.9.23s-.63-.07-.9-.23zm1.45-.53c.16-.09.29-.23.38-.41s.13-.38.13-.62-.04-.44-.13-.61c-.09-.18-.21-.31-.38-.4-.16-.09-.35-.14-.56-.14s-.4.05-.56.14c-.16.09-.29.23-.38.4-.09.17-.13.38-.13.61s.04.44.13.62.22.31.38.41c.16.09.35.14.56.14s.4-.05.56-.14zM393.77 402.88v.57h-1.46v.89h1.12v.56h-1.12v1.47h-.7v-3.49h2.16zM397.42 402.88v.57h-1.46v.89h1.12v.56h-1.12v1.47h-.7v-3.49h2.16z"/></g><g><path class="st12" d="M428.13 406.17c-.27-.15-.49-.37-.65-.64-.16-.27-.24-.58-.24-.92 0-.34.08-.65.24-.92.16-.27.38-.48.65-.64.27-.15.57-.23.9-.23.33 0 .63.08.9.23.27.15.49.37.65.64.16.27.24.58.24.92 0 .34-.08.65-.24.92-.16.27-.37.48-.65.64-.27.15-.57.23-.9.23s-.63-.07-.9-.23zm1.45-.53c.16-.09.29-.23.38-.41s.13-.38.13-.62-.04-.44-.13-.61c-.09-.18-.21-.31-.38-.4-.16-.09-.35-.14-.56-.14s-.4.05-.56.14c-.16.09-.29.23-.38.4-.09.17-.13.38-.13.61s.04.44.13.62.22.31.38.41c.16.09.35.14.56.14s.4-.05.56-.14zM435.32 406.37h-.7l-1.58-2.39v2.39h-.7v-3.5h.7l1.58 2.4v-2.4h.7v3.5z"/></g><g><path class="st12" d="M547.16 402.88v3.49h-.7v-2.27l-.93 2.27H545l-.94-2.27v2.27h-.7v-3.49h.79l1.11 2.6 1.11-2.6h.79zM550.99 405.7h-1.39l-.23.67h-.74l1.25-3.5h.82l1.25 3.5h-.74l-.22-.67zm-.19-.56-.5-1.46-.5 1.46h1zM555.52 406.37l-.75-1.17-.69 1.17h-.79l1.1-1.76-1.12-1.73h.8l.75 1.17.68-1.17h.79l-1.1 1.75 1.12 1.74h-.79z"/></g><g><path class="st12" d="M590.44 353.24h-1.49l-2.49-3.77v3.77h-1.49v-6.11h1.49l2.49 3.79v-3.79h1.49v6.11zM594.57 352.9c-.48-.27-.86-.64-1.14-1.12-.28-.48-.42-1.02-.42-1.62 0-.6.14-1.14.42-1.61.28-.48.66-.85 1.14-1.11s1.01-.4 1.58-.4 1.1.13 1.58.4.86.64 1.13 1.11c.28.48.41 1.01.41 1.61 0 .6-.14 1.14-.42 1.62s-.66.85-1.13 1.12c-.48.27-1 .4-1.58.4s-1.09-.13-1.57-.4zm2.76-1.45c.29-.33.44-.75.44-1.29s-.15-.97-.44-1.29-.68-.48-1.17-.48c-.49 0-.89.16-1.18.48-.29.32-.44.75-.44 1.3 0 .54.15.97.44 1.29s.69.48 1.18.48c.48 0 .87-.16 1.17-.49zM606.25 347.13v1.19h-1.62v4.92h-1.49v-4.92h-1.62v-1.19h4.73zM610.23 348.32v1.24h1.99v1.15h-1.99v1.34h2.26v1.19h-3.74v-6.11h3.74v1.19h-2.26zM616.2 353.08c-.35-.15-.64-.36-.85-.64-.21-.28-.32-.63-.34-1.03h1.58c.02.23.1.4.23.52s.31.18.52.18c.22 0 .4-.05.52-.15.13-.1.19-.24.19-.42 0-.15-.05-.28-.15-.37-.1-.1-.23-.18-.37-.24-.15-.06-.36-.14-.63-.22-.4-.12-.72-.24-.97-.37-.25-.12-.46-.3-.64-.54-.18-.24-.27-.55-.27-.93 0-.57.21-1.01.62-1.34s.95-.48 1.61-.48c.67 0 1.22.16 1.63.48s.63.77.66 1.35h-1.61c-.01-.2-.08-.35-.22-.47-.13-.11-.3-.17-.51-.17-.18 0-.33.05-.44.14s-.17.23-.17.41c0 .2.09.35.28.46.19.11.48.23.87.36.39.13.72.26.96.38.25.12.46.3.64.53.18.23.27.53.27.9 0 .35-.09.66-.27.95-.18.28-.43.51-.77.68-.34.17-.73.25-1.19.25-.42 0-.83-.07-1.18-.22z"/></g><g><path class="st25" d="M774.92 242.12c.39.2.68.48.89.85s.31.81.31 1.32c0 .5-.1.94-.31 1.31s-.5.65-.89.84c-.39.19-.85.29-1.39.29h-1.45v-4.89h1.45c.54-.01 1.01.09 1.39.28zm.17 3.66c.36-.36.54-.85.54-1.49s-.18-1.15-.54-1.51c-.36-.36-.88-.54-1.56-.54h-.96v4.08h.96c.68 0 1.2-.18 1.56-.54zM778.92 242.23v1.83h1.86v.41h-1.86v1.86h2.07v.41h-2.56v-4.9h2.56v.41h-2.07zM783.98 246.6c-.25-.11-.44-.27-.58-.47-.14-.2-.21-.42-.22-.67h.52c.02.24.13.45.31.63s.46.27.82.27c.33 0 .59-.09.79-.26.19-.17.29-.39.29-.65 0-.21-.05-.38-.16-.51s-.24-.22-.4-.29c-.16-.06-.38-.13-.66-.21-.33-.09-.59-.17-.78-.26s-.35-.21-.49-.39c-.13-.18-.2-.42-.2-.72 0-.25.07-.48.2-.68s.32-.35.55-.47c.24-.11.51-.17.82-.17.45 0 .82.11 1.1.33.28.22.44.51.48.86h-.53c-.03-.2-.14-.38-.33-.54s-.44-.23-.76-.23c-.29 0-.54.08-.74.23-.2.16-.29.37-.29.64 0 .21.05.37.16.5s.24.22.4.29c.16.07.38.14.66.21.32.09.57.18.77.26s.36.22.5.4.2.42.2.71c0 .23-.06.45-.18.65-.12.21-.3.37-.54.5-.24.13-.52.19-.85.19-.33.02-.62-.03-.86-.15zM789.24 241.83v4.89h-.49v-4.89h.49zM795.6 243.26c-.14-.32-.35-.58-.64-.76-.29-.18-.62-.28-1.01-.28-.36 0-.69.08-.98.25-.29.17-.52.41-.69.72-.17.31-.25.67-.25 1.08 0 .41.08.77.25 1.08.17.31.4.55.69.72.29.17.62.25.98.25.34 0 .65-.07.92-.22s.49-.36.66-.63c.17-.27.26-.59.28-.96h-2.06v-.4h2.58v.36c-.02.43-.14.82-.35 1.17-.21.35-.49.62-.84.82s-.75.3-1.19.3c-.45 0-.86-.11-1.23-.32-.37-.21-.66-.51-.87-.89-.21-.38-.32-.81-.32-1.29s.11-.91.32-1.29c.21-.38.5-.68.87-.89.37-.21.78-.32 1.23-.32.52 0 .98.13 1.37.39.39.26.68.63.85 1.09h-.57zM802.31 246.72h-.49l-2.71-4.12v4.12h-.49v-4.89h.49l2.71 4.11v-4.11h.49v4.89zM805.32 242.23v1.83h1.86v.41h-1.86v1.86h2.07v.41h-2.56v-4.9h2.56v.41h-2.07zM812.59 242.12c.39.2.68.48.89.85s.31.81.31 1.32c0 .5-.1.94-.31 1.31s-.5.65-.89.84c-.39.19-.85.29-1.39.29h-1.45v-4.89h1.45c.54-.01 1 .09 1.39.28zm.16 3.66c.36-.36.54-.85.54-1.49s-.18-1.15-.54-1.51c-.36-.36-.88-.54-1.56-.54h-.96v4.08h.96c.69 0 1.21-.18 1.56-.54zM822.4 244.62c.19.23.29.49.29.8 0 .25-.06.47-.19.67-.12.2-.3.35-.54.47-.24.11-.52.17-.85.17h-1.69v-4.89h1.65c.49 0 .87.11 1.13.34.26.23.39.52.39.89 0 .3-.08.55-.25.74-.16.19-.37.32-.63.4.26.04.5.18.69.41zm-2.5-.63h1.14c.33 0 .59-.08.77-.23s.27-.37.27-.65c0-.27-.09-.48-.27-.64s-.44-.23-.79-.23h-1.12v1.75zm2 2.07c.2-.17.3-.4.3-.69s-.1-.53-.31-.7c-.21-.17-.49-.26-.84-.26h-1.15v1.91h1.17c.35-.01.63-.09.83-.26zM828.22 241.83l-1.57 2.99v1.9h-.49v-1.9l-1.58-2.99h.55l1.27 2.54 1.27-2.54h.55zM837.34 246.72h-.49l-2.71-4.12v4.12h-.49v-4.89h.49l2.71 4.11v-4.11h.49v4.89zM842.69 245.56h-2.23l-.43 1.16h-.52l1.79-4.83h.55l1.78 4.83h-.52l-.42-1.16zm-.15-.4-.97-2.65-.97 2.65h1.94zM848.68 241.83v.41h-1.36v4.49h-.49v-4.49h-1.37v-.41h3.22zM854.49 241.83v4.89H854v-2.29h-2.65v2.29h-.49v-4.89h.49v2.2H854v-2.2h.49zM859.85 245.56h-2.23l-.43 1.16h-.52l1.79-4.83h.55l1.78 4.83h-.52l-.42-1.16zm-.15-.4-.97-2.65-.97 2.65h1.94zM863.46 246.32h1.76v.4h-2.25v-4.89h.49v4.49zM867.81 241.83v4.89h-.49v-4.89h.49zM873.16 245.56h-2.23l-.43 1.16h-.52l1.79-4.83h.55l1.78 4.83h-.52l-.42-1.16zm-.15-.4-.97-2.65-.97 2.65h1.94zM884.39 241.89v4.83h-.49v-3.86l-1.72 3.86h-.36l-1.72-3.84v3.84h-.49v-4.83h.52l1.87 4.19 1.87-4.19h.52zM889.73 245.56h-2.23l-.43 1.16h-.52l1.79-4.83h.55l1.78 4.83h-.52l-.42-1.16zm-.14-.4-.97-2.65-.97 2.65h1.94zM893.35 241.83v4.89h-.49v-4.89h.49zM898.7 245.56h-2.23l-.43 1.16h-.52l1.79-4.83h.55l1.78 4.83h-.52l-.42-1.16zm-.15-.4-.97-2.65-.97 2.65h1.94z"/></g></g></g></switch></svg>